<svg xmlns="http://www.w3.org/2000/svg" xmlns:xlink="http://www.w3.org/1999/xlink" xmlns:lucid="lucid" width="1760" height="1360"><g transform="translate(0 0)" lucid:page-tab-id="0_0"><path d="M0 0h1760v1360H0z" fill="#fff"/><path d="M320 128a8 8 0 0 1 8-8h1344a8 8 0 0 1 8 8v1124a8 8 0 0 1-8 8H328a8 8 0 0 1-8-8z" fill="#fff" fill-opacity="0"/><path d="M320.55 125.14l.32-.77.66-1.07.27-.32m1.18-1.18l.32-.27 1.07-.66.77-.32m1.6-.45l1.26-.1h1.5m2 0h3m2 0h3m2 0h3m2 0h2.98m2 0h3m2 0h3m2 0h3m2 0h3m2 0h2.98m2 0h3m2 0h3m2 0h3m2 0h3m2 0h3m2 0h2.98m2 0h3m2 0h3m2 0h3m2 0h3m2 0h3m1.98 0h3m2 0h3m2 0h3m2 0h3m2 0h3m1.98 0h3m2 0h3m2 0h3m2 0h3m2 0h3m2 0h2.98m2 0h3m2 0h3m2 0h3m2 0h3m2 0h3m1.98 0h3m2 0h3m2 0h3m2 0h3m2 0h3m2 0h2.98m2 0h3m2 0h3m2 0h3m2 0h3m2 0h2.98m2 0h3m2 0h3m2 0h3m2 0h3m2 0h3m1.98 0h3m2 0h3m2 0h3m2 0h3m2 0h3m2 0h2.98m2 0h3m2 0h3m2 0h3m2 0h3m2 0h3m1.98 0h3m2 0h3m2 0h3m2 0h3m2 0h3m2 0h2.98m2 0h3m2 0h3m2 0h3m2 0h3m2 0h2.98m2 0h3m2 0h3m2 0h3m2 0h3m2 0h3m1.98 0h3m2 0h3m2 0h3m2 0h3m2 0h3m1.98 0h3m2 0h3m2 0h3m2 0h3m2 0h3m2 0h2.98m2 0h3m2 0h3m2 0h3m2 0h3m2 0h3m1.98 0h3m2 0h3m2 0h3m2 0h3m2 0h3m2 0h2.98m2 0h3m2 0h3m2 0h3m2 0h3m2 0h3m1.98 0h3m2 0h3m2 0h3m2 0h3m2 0h3m2 0h2.98m2 0h3m2 0h3m2 0h3m2 0h3m2 0h2.98m2 0h3m2 0h3m2 0h3m2 0h3m2 0h3m1.98 0h3m2 0h3m2 0h3m2 0h3m2 0h3m2 0H969m2 0h3m2 0h3m2 0h3m2 0h3m2 0H994m2 0h3m2 0h3m2 0h3m2 0h3m2 0h3m1.98 0h3m2 0h3m2 0h3m2 0h3m2 0h3m2 0h2.98m2 0h3m2 0h3m2 0h3m2 0h3m2 0h2.98m2 0h3m2 0h3m2 0h3m2 0h3m2 0h3m1.98 0h3m2 0h3m2 0h3m2 0h3m2 0h3m2 0h2.98m2 0h3m2 0h3m2 0h3m2 0h3m2 0h3m1.98 0h3m2 0h3m2 0h3m2 0h3m2 0h3m1.98 0h3m2 0h3m2 0h3m2 0h3m2 0h3m2 0h3m1.98 0h3m2 0h3m2 0h3m2 0h3m2 0h3m2 0h2.98m2 0h3m2 0h3m2 0h3m2 0h3m2 0h2.98m2 0h3m2 0h3m2 0h3m2 0h3m2 0h3m1.98 0h3m2 0h3m2 0h3m2 0h3m2 0h3m2 0h2.98m2 0h3m2 0h3m2 0h3m2 0h3m2 0h2.98m2 0h3m2 0h3m2 0h3m2 0h3m2 0h3m1.98 0h3m2 0h3m2 0h3m2 0h3m2 0h3m2 0h2.98m2 0h3m2 0h3m2 0h3m2 0h3m2 0h2.98m2 0h3m2 0h3m2 0h3m2 0h3m2 0h3m1.98 0h3m2 0h3m2 0h3m2 0h3m2 0h3m2 0h2.98m2 0h3m2 0h3m2 0h3m2 0h3m2 0h2.98m2 0h3m2 0h3m2 0h3m2 0h3m2 0h3m2 0h2.98m2 0h3m2 0h3m2 0h3m2 0h3m2 0h2.98m2 0h3m2 0h3m2 0h3m2 0h3m2 0h3m1.98 0h3m2 0h3m2 0h3m2 0h3m2 0h3m2 0h2.98m2 0h3m2 0h3m2 0h3m2 0h3m2 0h3m1.98 0h3m2 0h3m2 0h3m2 0h3m2 0h3m2 0h2.98m2 0h1.5l1.25.1m1.6.45l.78.32 1.07.66.32.27m1.18 1.18l.27.32.66 1.07.32.77m.45 1.6l.1 1.26v1.5m0 2v3m0 2v3m0 2v3m0 1.98v3m0 2v3m0 2v3m0 2v3m0 2v2.98m0 2v3m0 2v3m0 2v3m0 2v2.98m0 2v3m0 2v3m0 2v3m0 2v3m0 2v2.98m0 2v3m0 2v3m0 2v3m0 2v3m0 1.98v3m0 2v3m0 2v3m0 2v3m0 2v2.98m0 2v3m0 2v3m0 2v3m0 2v3m0 1.98v3m0 2v3m0 2v3m0 2v3m0 2v2.98m0 2v3m0 2v3m0 2v3m0 2v3m0 1.98v3m0 2v3m0 2v3m0 2v3m0 2v2.98m0 2v3m0 2v3m0 2v3m0 2v3m0 1.98v3m0 2v3m0 2v3m0 2v3m0 2v2.98m0 2v3m0 2v3m0 2v3m0 2v3m0 1.98v3m0 2v3m0 2v3m0 2v3m0 2v2.98m0 2v3m0 2v3m0 2v3m0 2v2.98m0 2v3m0 2v3m0 2v3m0 2v3m0 2v2.98m0 2v3m0 2v3m0 2v3m0 2v3m0 1.98v3m0 2v3m0 2v3m0 2v3m0 2v2.98m0 2v3m0 2v3m0 2v3m0 2v3m0 1.98v3m0 2v3m0 2v3m0 2v3m0 2v2.98m0 2v3m0 2v3m0 2v3m0 2v3m0 1.98v3m0 2v3m0 2v3m0 2v3m0 2v2.98m0 2v3m0 2v3m0 2v3m0 2v3m0 1.98v3m0 2v3m0 2v3m0 2v3m0 2V664m0 2v3m0 2v3m0 2v3m0 2v3m0 1.98v3m0 2v3m0 2v3m0 2v3m0 2v2.98m0 2v3m0 2v3m0 2v3m0 2v3m0 1.98v3m0 2v3m0 2v3m0 2v3m0 2v2.98m0 2v3m0 2v3m0 2v3m0 2v2.98m0 2v3m0 2v3m0 2v3m0 2v3m0 2v2.98m0 2v3m0 2v3m0 2v3m0 2v3m0 1.98v3m0 2v3m0 2v3m0 2v3m0 2v2.98m0 2v3m0 2v3m0 2v3m0 2v3m0 1.98v3m0 2v3m0 2v3m0 2v3m0 2v2.98m0 2v3m0 2v3m0 2v3m0 2v2.98m0 2v3m0 2v3m0 2v3m0 2v3m0 2v2.98m0 2v3m0 2v3m0 2v3m0 2v3m0 1.98v3m0 2v3m0 2v3m0 2v3m0 2v2.98m0 2v3m0 2v3m0 2v3m0 2v3m0 1.98v3m0 2v3m0 2v3m0 2v3m0 2v2.98m0 2v3m0 2v3m0 2v3m0 2v2.98m0 2v3m0 2v3m0 2v3m0 2v3m0 2v2.98m0 2v3m0 2v3m0 2v3m0 2v2.98m0 2v3m0 2v3m0 2v3m0 2v3m0 2v2.98m0 2v3m0 2v3m0 2v3m0 2v3m0 1.98v3m0 2v3m0 2v3m0 2v3m0 2v2.98m0 2v3m0 2v3m0 2v3m0 2v3m0 1.98v3m0 2v3m0 2v3m0 2v3m0 2v2.98m0 2v3m0 2v3m0 2v3m0 2v3m0 1.98v3m0 2v3m0 2v3m0 2v3m0 2v2.98m0 2v1.5l-.1 1.25m-.45 1.6l-.32.78-.66 1.07-.27.32m-1.18 1.18l-.32.27-1.07.66-.77.32m-1.6.45l-1.26.1h-1.5m-2 0h-3m-2 0h-3m-2 0h-3m-2 0h-2.98m-2 0h-3m-2 0h-3m-2 0h-3m-2 0h-3m-2 0h-2.98m-2 0h-3m-2 0h-3m-2 0h-3m-2 0h-3m-2 0h-3m-1.98 0h-3m-2 0h-3m-2 0h-3m-2 0h-3m-2 0h-3m-2 0h-2.98m-2 0h-3m-2 0h-3m-2 0h-3m-2 0h-3m-2 0h-3m-1.98 0h-3m-2 0h-3m-2 0h-3m-2 0h-3m-2 0h-3m-2 0h-2.98m-2 0h-3m-2 0h-3m-2 0h-3m-2 0h-3m-2 0h-2.98m-2 0h-3m-2 0h-3m-2 0h-3m-2 0h-3m-2 0h-3m-2 0h-2.98m-2 0h-3m-2 0h-3m-2 0h-3m-2 0h-3m-2 0h-2.98m-2 0h-3m-2 0h-3m-2 0h-3m-2 0h-3m-2 0h-3m-1.98 0h-3m-2 0h-3m-2 0h-3m-2 0h-3m-2 0h-3m-2 0h-2.98m-2 0h-3m-2 0h-3m-2 0h-3m-2 0h-3m-2 0h-3m-1.98 0h-3m-2 0h-3m-2 0h-3m-2 0h-3m-2 0h-3m-1.98 0h-3m-2 0h-3m-2 0h-3m-2 0h-3m-2 0h-3m-2 0h-2.98m-2 0h-3m-2 0h-3m-2 0h-3m-2 0h-3m-2 0h-2.98m-2 0h-3m-2 0h-3m-2 0h-3m-2 0h-3m-2 0h-3m-1.98 0h-3m-2 0h-3m-2 0h-3m-2 0h-3m-2 0h-3m-2 0h-2.98m-2 0h-3m-2 0h-3m-2 0h-3m-2 0h-3m-2 0h-3m-1.98 0h-3m-2 0h-3m-2 0h-3m-2 0h-3m-2 0h-3m-2 0h-2.98m-2 0h-3m-2 0h-3m-2 0h-3m-2 0h-3m-2 0h-3m-1.98 0h-3m-2 0h-3m-2 0h-3m-2 0h-3m-2 0h-3m-2 0h-2.98m-2 0h-3m-2 0h-3m-2 0h-3m-2 0h-3m-2 0h-2.98m-2 0h-3m-2 0h-3m-2 0h-3m-2 0h-3m-2 0h-3m-1.98 0h-3m-2 0h-3m-2 0h-3m-2 0h-3m-2 0h-3m-2 0H1031m-2 0h-3m-2 0h-3m-2 0h-3m-2 0h-3m-2 0H1006m-2 0h-3m-2 0h-3m-2 0h-3m-2 0h-3m-2 0h-3m-1.98 0h-3m-2 0h-3m-2 0h-3m-2 0h-3m-2 0h-3m-2 0h-2.98m-2 0h-3m-2 0h-3m-2 0h-3m-2 0h-3m-2 0h-3m-1.98 0h-3m-2 0h-3m-2 0h-3m-2 0h-3m-2 0h-3m-1.98 0h-3m-2 0h-3m-2 0h-3m-2 0h-3m-2 0h-3m-2 0h-2.98m-2 0h-3m-2 0h-3m-2 0h-3m-2 0h-3m-2 0h-3m-1.98 0h-3m-2 0h-3m-2 0h-3m-2 0h-3m-2 0h-3m-2 0h-2.98m-2 0h-3m-2 0h-3m-2 0h-3m-2 0h-3m-2 0h-3m-1.98 0h-3m-2 0h-3m-2 0h-3m-2 0h-3m-2 0h-3m-2 0h-2.98m-2 0h-3m-2 0h-3m-2 0h-3m-2 0h-3m-2 0h-2.98m-2 0h-3m-2 0h-3m-2 0h-3m-2 0h-3m-2 0h-3m-1.98 0h-3m-2 0h-3m-2 0h-3m-2 0h-3m-2 0h-3m-2 0h-2.98m-2 0h-3m-2 0h-3m-2 0h-3m-2 0h-3m-2 0h-2.98m-2 0h-3m-2 0h-3m-2 0h-3m-2 0h-3m-2 0h-3m-1.98 0h-3m-2 0h-3m-2 0h-3m-2 0h-3m-2 0h-3m-2 0h-2.98m-2 0h-3m-2 0h-3m-2 0h-3m-2 0h-3m-2 0h-2.98m-2 0h-3m-2 0h-3m-2 0h-3m-2 0h-3m-2 0h-3m-2 0h-2.98m-2 0h-3m-2 0h-3m-2 0h-3m-2 0h-3m-2 0h-2.98m-2 0h-3m-2 0h-3m-2 0h-3m-2 0h-3m-2 0h-3m-1.98 0h-3m-2 0h-3m-2 0h-3m-2 0h-3m-2 0h-3m-2 0h-2.98m-2 0h-3m-2 0h-3m-2 0h-3m-2 0h-3m-2 0h-2.98m-2 0h-3m-2 0h-3m-2 0h-3m-2 0h-3m-2 0h-3m-1.98 0h-3m-2 0h-3m-2 0h-3m-2 0h-3m-2 0h-3m-2 0h-2.98m-2 0h-3m-2 0h-3m-2 0h-3m-2 0h-3m-2 0h-2.98m-2 0h-3m-2 0h-3m-2 0h-3m-2 0h-3m-2 0h-3m-2 0h-2.98m-2 0H328l-1.25-.1m-1.6-.45l-.78-.32-1.07-.66-.32-.27m-1.18-1.18l-.27-.32-.66-1.07-.32-.77m-.45-1.6l-.1-1.26v-1.5m0-2v-3m0-2v-3m0-2v-2.98m0-2v-3m0-2v-3m0-2v-3m0-2v-3m0-2v-2.98m0-2v-3m0-2v-3m0-2v-3m0-2v-2.98m0-2v-3m0-2v-3m0-2v-3m0-2v-3m0-2v-2.98m0-2v-3m0-2v-3m0-2v-3m0-2v-2.98m0-2v-3m0-2v-3m0-2v-3m0-2v-3m0-2v-2.98m0-2v-3m0-2v-3m0-2v-3m0-2v-2.98m0-2v-3m0-2v-3m0-2v-3m0-2v-3m0-2v-2.98m0-2v-3m0-2v-3m0-2v-3m0-2v-3m0-1.98v-3m0-2v-3m0-2v-3m0-2v-3m0-2v-2.98m0-2v-3m0-2v-3m0-2v-3m0-2v-3m0-1.98v-3m0-2v-3m0-2v-3m0-2v-3m0-2v-2.98m0-2v-3m0-2v-3m0-2v-3m0-2v-3m0-1.98v-3m0-2v-3m0-2v-3m0-2v-3m0-2v-2.98m0-2v-3m0-2v-3m0-2v-3m0-2v-3m0-1.98v-3m0-2v-3m0-2v-3m0-2v-3m0-2v-2.98m0-2v-3m0-2v-3m0-2v-3m0-2v-3m0-1.98v-3m0-2v-3m0-2v-3m0-2v-3m0-2v-2.98m0-2v-3m0-2v-3m0-2v-3m0-2v-3m0-1.98v-3m0-2v-3m0-2v-3m0-2v-3m0-2v-2.98m0-2v-3m0-2v-3m0-2v-3m0-2v-3m0-1.98v-3m0-2v-3m0-2v-3m0-2v-3m0-2v-2.98m0-2v-3m0-2v-3m0-2v-3m0-2v-3m0-1.98v-3m0-2v-3m0-2v-3m0-2v-3m0-2V716m0-2v-3m0-2v-3m0-2v-3m0-2v-3m0-1.98v-3m0-2v-3m0-2v-3m0-2v-3m0-2v-2.98m0-2v-3m0-2v-3m0-2v-3m0-2v-3m0-1.98v-3m0-2v-3m0-2v-3m0-2v-3m0-2v-2.98m0-2v-3m0-2v-3m0-2v-3m0-2v-2.98m0-2v-3m0-2v-3m0-2v-3m0-2v-3m0-2v-2.98m0-2v-3m0-2v-3m0-2v-3m0-2v-3m0-1.98v-3m0-2v-3m0-2v-3m0-2v-3m0-2v-2.98m0-2v-3m0-2v-3m0-2v-3m0-2v-3m0-1.98v-3m0-2v-3m0-2v-3m0-2v-3m0-2v-2.98m0-2v-3m0-2v-3m0-2v-3m0-2v-3m0-1.98v-3m0-2v-3m0-2v-3m0-2v-3m0-2v-2.98m0-2v-3m0-2v-3m0-2v-3m0-2v-3m0-1.98v-3m0-2v-3m0-2v-3m0-2v-3m0-2v-2.98m0-2v-3m0-2v-3m0-2v-3m0-2v-3m0-1.98v-3m0-2v-3m0-2v-3m0-2v-3m0-2v-2.98m0-2v-3m0-2v-3m0-2v-3m0-2v-3m0-1.98v-3m0-2v-3m0-2v-3m0-2v-3m0-2v-2.98m0-2v-3m0-2v-3m0-2v-3m0-2v-2.98m0-2v-3m0-2v-3m0-2v-3m0-2v-3m0-2v-2.98m0-2v-3m0-2v-3m0-2v-3m0-2v-2.98m0-2v-3m0-2v-3m0-2v-3m0-2v-3m0-2v-2.98m0-2v-3m0-2v-3m0-2v-3m0-2v-2.98m0-2v-3m0-2v-3m0-2v-3m0-2v-3m0-2v-2.98m0-2v-3m0-2v-3m0-2v-3m0-2v-3m0-1.98v-3m0-2v-3m0-2v-3m0-2v-3m0-2v-2.98m0-2V128l.1-1.25" stroke="#6db1ff" fill="none"/><path d="M320 120h56v56h-56v-56z" stroke="#fff" stroke-opacity="0" fill="#6db1ff"/><path d="M363.84 149.36l-5.96-7.36 5.96-7.4h-26.17v-2.08c.98-.32 1.62-1.16 1.62-2.2-.1-1.15-1.03-2.02-2.17-2.14-1.3-.08-2.44.87-2.53 2.15 0 1.03.63 1.87 1.58 2.2v33.88h-4.02v1.6h9.44v-1.6h-3.93v-17.04zm-26.96-19.75c.4-.03.76.33.76.73 0 .44-.32.75-.73.75-.4.04-.75-.3-.75-.7v-.05c0-.4.32-.72.73-.72zm23.6 6.62l-4.66 5.78 4.66 5.73h-22.8v-11.5z" stroke="#fff" stroke-opacity="0" fill="#fff"/><use xlink:href="#a" transform="matrix(1,0,0,1,391,140) translate(0 18.13333333333333)"/><path d="M360 288a8 8 0 0 1 8-8h1264a8 8 0 0 1 8 8v364a8 8 0 0 1-8 8H368a8 8 0 0 1-8-8z" fill="#fff" fill-opacity="0"/><path d="M361.36 283.56l.17-.26.8-.96.97-.8.26-.18m2.88-1.2l.3-.06 1.26-.1h2m4 0h4m4 0h4m4 0h4m4 0h4m4 0h4m4 0h4m4 0h4m4 0h4m4 0h4m4 0h4m4 0h4m4 0h4m4 0h4m4 0h4m4 0h4m4 0h4m4 0h4m4 0h4m4 0h4m4 0h4m4 0h4m4 0h4m4 0h4m4 0h4m4 0h4m4 0h4m4 0h4m4 0h4m4 0h4m4 0h4m4 0h4m4 0h4m4 0h4m4 0h4m4 0h4m4 0h4m4 0h4m4 0h4m4 0h4m4 0h4m4 0h4m4 0h4m4 0h4m4 0h4m4 0h4m4 0h4m4 0h4m4 0h4m4 0h4m4 0h4m4 0h4m4 0h4m4 0h4m4 0h4m4 0h4m4 0h4m4 0h4m4 0h4m4 0h4m4 0h4m4 0h4m4 0h4m4 0h4m4 0h4m4 0h4m4 0h4m4 0h4m4 0h4m4 0h4m4 0h4m4 0h4m4 0h4m4 0h4m4 0h4m4 0h4m4 0h4m4 0h4m4 0h4m4 0h4m4 0h4m4 0h4m4 0h4m4 0h4m4 0h4m4 0h4m4 0h4m4 0h4m4 0h4m4 0h4m4 0h4m4 0h4m4 0h4m4 0h4m4 0h4m4 0h4m4 0h4m4 0h4m4 0h4m4 0h4m4 0h4m4 0h4m4 0h4m4 0h4m4 0h4m4 0h4m4 0h4m4 0h4m4 0h4m4 0h4m4 0h4m4 0h4m4 0h4m4 0h4m4 0h4m4 0h4m4 0h4m4 0h4m4 0h4m4 0h4m4 0h4m4 0h4m4 0h4m4 0h4m4 0h4m4 0h4m4 0h4m4 0h4m4 0h4m4 0h4m4 0h4m4 0h4m4 0h4m4 0h4m4 0h4m4 0h4m4 0h4m4 0h4m4 0h4m4 0h4m4 0h4m4 0h4m4 0h4m4 0h4m4 0h4m4 0h4m4 0h4m4 0h4m4 0h4m4 0h4m4 0h4m4 0h4m4 0h4m4 0h4m4 0h4m4 0h4m4 0h4m4 0h4m4 0h2l1.25.1.3.07m2.88 1.2l.27.16.96.8.8.97.18.26m1.2 2.88l.06.3.1 1.26v1.98m0 3.95v3.96m0 3.95v3.95m0 3.96v3.96m0 3.95v3.96m0 3.96v3.94m0 3.96v3.96m0 3.95v3.97m0 3.96v3.95m0 3.96v3.96m0 3.95v3.96m0 3.96v3.96m0 3.96v3.95m0 3.96v3.95m0 3.95v3.96m0 3.96v3.95m0 3.96v3.96m0 3.94v3.96m0 3.96v3.95m0 3.97v3.96m0 3.95v3.96m0 3.96v3.95m0 3.96v3.96m0 3.96v3.96m0 3.95v3.96m0 3.95v3.95m0 3.96v3.96m0 3.95v3.96m0 3.96v3.94m0 3.96v3.96m0 3.95v3.97m0 3.96v3.95m0 3.96v3.96m0 3.95v3.96m0 3.97v3.95m0 3.96v3.95m0 3.96v3.95m0 3.95v3.96m0 3.96v3.95m0 3.96v3.96m0 3.94v3.96m0 3.96v3.95m0 3.97v3.96m0 3.95v3.96m0 3.96v3.95m0 3.96v3.97m0 3.95V652l-.1 1.25-.07.3m-1.2 2.88l-.16.27-.8.96-.97.8-.27.18m-2.87 1.2l-.3.06-1.26.1h-2m-4 0h-4m-4 0h-4m-4 0h-4m-4 0h-4m-4 0h-4m-4 0h-4m-4 0h-4m-4 0h-4m-4 0h-4m-4 0h-4m-4 0h-4m-4 0h-4m-4 0h-4m-4 0h-4m-4 0h-4m-4 0h-4m-4 0h-4m-4 0h-4m-4 0h-4m-4 0h-4m-4 0h-4m-4 0h-4m-4 0h-4m-4 0h-4m-4 0h-4m-4 0h-4m-4 0h-4m-4 0h-4m-4 0h-4m-4 0h-4m-4 0h-4m-4 0h-4m-4 0h-4m-4 0h-4m-4 0h-4m-4 0h-4m-4 0h-4m-4 0h-4m-4 0h-4m-4 0h-4m-4 0h-4m-4 0h-4m-4 0h-4m-4 0h-4m-4 0h-4m-4 0h-4m-4 0h-4m-4 0h-4m-4 0h-4m-4 0h-4m-4 0h-4m-4 0h-4m-4 0h-4m-4 0h-4m-4 0h-4m-4 0h-4m-4 0h-4m-4 0h-4m-4 0h-4m-4 0h-4m-4 0h-4m-4 0h-4m-4 0h-4m-4 0h-4m-4 0h-4m-4 0h-4m-4 0h-4m-4 0h-4m-4 0h-4m-4 0h-4m-4 0h-4m-4 0h-4m-4 0h-4m-4 0h-4m-4 0h-4m-4 0h-4m-4 0h-4m-4 0h-4m-4 0h-4m-4 0h-4m-4 0h-4m-4 0h-4m-4 0h-4m-4 0h-4m-4 0h-4m-4 0h-4m-4 0h-4m-4 0h-4m-4 0h-4m-4 0h-4m-4 0h-4m-4 0h-4m-4 0h-4m-4 0h-4m-4 0h-4m-4 0h-4m-4 0h-4m-4 0h-4m-4 0h-4m-4 0h-4m-4 0h-4m-4 0h-4m-4 0h-4m-4 0h-4m-4 0h-4m-4 0h-4m-4 0h-4m-4 0h-4m-4 0h-4m-4 0h-4m-4 0h-4m-4 0h-4m-4 0h-4m-4 0h-4m-4 0h-4m-4 0h-4m-4 0h-4m-4 0h-4m-4 0h-4m-4 0h-4m-4 0h-4m-4 0h-4m-4 0h-4m-4 0h-4m-4 0h-4m-4 0h-4m-4 0h-4m-4 0h-4m-4 0h-4m-4 0h-4m-4 0h-4m-4 0h-4m-4 0h-4m-4 0h-4m-4 0h-4m-4 0h-4m-4 0h-4m-4 0h-4m-4 0h-4m-4 0h-4m-4 0h-4m-4 0h-4m-4 0h-4m-4 0h-4m-4 0h-4m-4 0h-4m-4 0h-4m-4 0h-4m-4 0h-4m-4 0h-4m-4 0h-4m-4 0h-4m-4 0h-4m-4 0h-4m-4 0h-4m-4 0h-4m-4 0h-4m-4 0h-2l-1.25-.1-.3-.07m-2.88-1.2l-.27-.16-.96-.8-.8-.97-.18-.27m-1.2-2.87l-.06-.3-.1-1.26v-1.98m0-3.95v-3.96m0-3.95v-3.95m0-3.96v-3.96m0-3.95v-3.96m0-3.96v-3.94m0-3.96v-3.96m0-3.95v-3.97m0-3.96v-3.95m0-3.96v-3.96m0-3.95v-3.96m0-3.97v-3.95m0-3.96v-3.95m0-3.96v-3.95m0-3.95v-3.96m0-3.96v-3.95m0-3.96v-3.96m0-3.94v-3.96m0-3.96v-3.95m0-3.97v-3.96m0-3.95v-3.96m0-3.96v-3.95m0-3.96v-3.96m0-3.96v-3.96m0-3.95v-3.96m0-3.95v-3.95m0-3.96v-3.96m0-3.95v-3.96m0-3.96v-3.94m0-3.96v-3.96m0-3.95v-3.97m0-3.96v-3.95m0-3.96v-3.96m0-3.95v-3.96m0-3.96v-3.96m0-3.96v-3.95m0-3.96v-3.95m0-3.95v-3.96m0-3.96v-3.95m0-3.96v-3.96m0-3.94v-3.96m0-3.96v-3.95m0-3.97v-3.96m0-3.95v-3.96m0-3.96v-3.95m0-3.96v-3.96m0-3.96V288l.1-1.25.07-.3" stroke="#147eba" fill="none"/><path d="M360 858a8 8 0 0 1 8-8h1264a8 8 0 0 1 8 8v344a8 8 0 0 1-8 8H368a8 8 0 0 1-8-8z" fill="#fff" fill-opacity="0"/><path d="M361.36 853.57l.17-.27.8-.96.97-.8.26-.18m2.88-1.2l.3-.06 1.26-.1h2m4 0h4m4 0h4m4 0h4m4 0h4m4 0h4m4 0h4m4 0h4m4 0h4m4 0h4m4 0h4m4 0h4m4 0h4m4 0h4m4 0h4m4 0h4m4 0h4m4 0h4m4 0h4m4 0h4m4 0h4m4 0h4m4 0h4m4 0h4m4 0h4m4 0h4m4 0h4m4 0h4m4 0h4m4 0h4m4 0h4m4 0h4m4 0h4m4 0h4m4 0h4m4 0h4m4 0h4m4 0h4m4 0h4m4 0h4m4 0h4m4 0h4m4 0h4m4 0h4m4 0h4m4 0h4m4 0h4m4 0h4m4 0h4m4 0h4m4 0h4m4 0h4m4 0h4m4 0h4m4 0h4m4 0h4m4 0h4m4 0h4m4 0h4m4 0h4m4 0h4m4 0h4m4 0h4m4 0h4m4 0h4m4 0h4m4 0h4m4 0h4m4 0h4m4 0h4m4 0h4m4 0h4m4 0h4m4 0h4m4 0h4m4 0h4m4 0h4m4 0h4m4 0h4m4 0h4m4 0h4m4 0h4m4 0h4m4 0h4m4 0h4m4 0h4m4 0h4m4 0h4m4 0h4m4 0h4m4 0h4m4 0h4m4 0h4m4 0h4m4 0h4m4 0h4m4 0h4m4 0h4m4 0h4m4 0h4m4 0h4m4 0h4m4 0h4m4 0h4m4 0h4m4 0h4m4 0h4m4 0h4m4 0h4m4 0h4m4 0h4m4 0h4m4 0h4m4 0h4m4 0h4m4 0h4m4 0h4m4 0h4m4 0h4m4 0h4m4 0h4m4 0h4m4 0h4m4 0h4m4 0h4m4 0h4m4 0h4m4 0h4m4 0h4m4 0h4m4 0h4m4 0h4m4 0h4m4 0h4m4 0h4m4 0h4m4 0h4m4 0h4m4 0h4m4 0h4m4 0h4m4 0h4m4 0h4m4 0h4m4 0h4m4 0h4m4 0h4m4 0h4m4 0h4m4 0h4m4 0h4m4 0h4m4 0h4m4 0h4m4 0h4m4 0h4m4 0h4m4 0h4m4 0h2l1.25.1.3.07m2.88 1.2l.27.16.96.8.8.97.18.27m1.2 2.87l.06.3.1 1.26v2m0 4v4m0 4v4m0 4v4m0 4v4m0 4v4m0 4v4m0 4v4m0 4v4m0 4v4m0 4v4m0 4v4m0 4v4m0 4v4m0 4v4m0 4v4m0 4v4m0 4v4m0 4v4m0 4v4m0 4v4m0 4v4m0 4v4m0 4v4m0 4v4m0 4v4m0 4v4m0 4v4m0 4v4m0 4v4m0 4v4m0 4v4m0 4v4m0 4v4m0 4v4m0 4v4m0 4v4m0 4v4m0 4v4m0 4v4m0 4v4m0 4v4m0 4v4m0 4v2l-.1 1.25-.07.3m-1.2 2.88l-.16.27-.8.96-.97.8-.27.18m-2.87 1.2l-.3.06-1.26.1h-2m-4 0h-4m-4 0h-4m-4 0h-4m-4 0h-4m-4 0h-4m-4 0h-4m-4 0h-4m-4 0h-4m-4 0h-4m-4 0h-4m-4 0h-4m-4 0h-4m-4 0h-4m-4 0h-4m-4 0h-4m-4 0h-4m-4 0h-4m-4 0h-4m-4 0h-4m-4 0h-4m-4 0h-4m-4 0h-4m-4 0h-4m-4 0h-4m-4 0h-4m-4 0h-4m-4 0h-4m-4 0h-4m-4 0h-4m-4 0h-4m-4 0h-4m-4 0h-4m-4 0h-4m-4 0h-4m-4 0h-4m-4 0h-4m-4 0h-4m-4 0h-4m-4 0h-4m-4 0h-4m-4 0h-4m-4 0h-4m-4 0h-4m-4 0h-4m-4 0h-4m-4 0h-4m-4 0h-4m-4 0h-4m-4 0h-4m-4 0h-4m-4 0h-4m-4 0h-4m-4 0h-4m-4 0h-4m-4 0h-4m-4 0h-4m-4 0h-4m-4 0h-4m-4 0h-4m-4 0h-4m-4 0h-4m-4 0h-4m-4 0h-4m-4 0h-4m-4 0h-4m-4 0h-4m-4 0h-4m-4 0h-4m-4 0h-4m-4 0h-4m-4 0h-4m-4 0h-4m-4 0h-4m-4 0h-4m-4 0h-4m-4 0h-4m-4 0h-4m-4 0h-4m-4 0h-4m-4 0h-4m-4 0h-4m-4 0h-4m-4 0h-4m-4 0h-4m-4 0h-4m-4 0h-4m-4 0h-4m-4 0h-4m-4 0h-4m-4 0h-4m-4 0h-4m-4 0h-4m-4 0h-4m-4 0h-4m-4 0h-4m-4 0h-4m-4 0h-4m-4 0h-4m-4 0h-4m-4 0h-4m-4 0h-4m-4 0h-4m-4 0h-4m-4 0h-4m-4 0h-4m-4 0h-4m-4 0h-4m-4 0h-4m-4 0h-4m-4 0h-4m-4 0h-4m-4 0h-4m-4 0h-4m-4 0h-4m-4 0h-4m-4 0h-4m-4 0h-4m-4 0h-4m-4 0h-4m-4 0h-4m-4 0h-4m-4 0h-4m-4 0h-4m-4 0h-4m-4 0h-4m-4 0h-4m-4 0h-4m-4 0h-4m-4 0h-4m-4 0h-4m-4 0h-4m-4 0h-4m-4 0h-4m-4 0h-4m-4 0h-4m-4 0h-4m-4 0h-4m-4 0h-4m-4 0h-4m-4 0h-4m-4 0h-4m-4 0h-4m-4 0h-4m-4 0h-4m-4 0h-4m-4 0h-4m-4 0h-4m-4 0h-4m-4 0h-4m-4 0h-4m-4 0h-4m-4 0h-4m-4 0h-4m-4 0h-4m-4 0h-4m-4 0h-4m-4 0h-4m-4 0h-2l-1.25-.1-.3-.07m-2.88-1.2l-.27-.16-.96-.8-.8-.97-.18-.27m-1.2-2.87l-.06-.3-.1-1.26v-2m0-4v-4m0-4v-4m0-4v-4m0-4v-4m0-4v-4m0-4v-4m0-4v-4m0-4v-4m0-4v-4m0-4v-4m0-4v-4m0-4v-4m0-4v-4m0-4v-4m0-4v-4m0-4v-4m0-4v-4m0-4v-4m0-4v-4m0-4v-4m0-4v-4m0-4v-4m0-4v-4m0-4v-4m0-4v-4m0-4v-4m0-4v-4m0-4v-4m0-4v-4m0-4v-4m0-4v-4m0-4v-4m0-4v-4m0-4v-4m0-4v-4m0-4v-4m0-4v-4m0-4v-4m0-4v-4m0-4v-4m0-4v-4m0-4v-4m0-4v-2l.1-1.25.07-.3" stroke="#147eba" fill="none"/><path d="M1160 348a8 8 0 0 1 8-8h304a8 8 0 0 1 8 8v824a8 8 0 0 1-8 8h-304a8 8 0 0 1-8-8z" fill="#fff" fill-opacity="0"/><path d="M1160.55 345.14l.32-.77.66-1.07.27-.32m1.18-1.18l.32-.27 1.07-.66.77-.32m1.6-.45l1.26-.1h1.5m2 0h2.98m2 0h2.98m2 0h3m1.98 0h3m1.98 0h3m2 0h2.98m2 0h2.98m2 0h2.98m2 0h3m1.98 0h3m2 0h2.98m2 0h2.98m2 0h2.98m2 0h3m1.98 0h3m1.98 0h3m2 0h2.98m2 0h2.98m2 0h2.98m2 0h3m1.98 0h3m1.98 0h3m2 0h2.98m2 0h2.98m2 0h3m1.98 0h3m1.98 0h3m2 0h2.98m2 0h2.98m2 0h2.98m2 0h3m1.98 0h3m1.98 0h3m2 0h2.98m2 0h2.98m2 0h2.98m2 0h3m1.98 0h3m2 0h2.98m2 0h2.98m2 0h2.98m2 0h3m1.98 0h3m1.98 0h3m2 0h2.98m2 0h2.98m2 0h2.98m2 0h3m1.98 0h3m1.98 0h3m2 0h2.98m2 0h2.98m2 0h3m1.98 0h3m1.98 0h3m2 0h2.98m2 0h2.98m2 0h2.98m2 0h3m1.98 0h3m2 0h1.48l1.25.1m1.6.45l.78.32 1.07.66.32.27m1.18 1.18l.27.32.66 1.07.32.77m.45 1.6l.1 1.26v1.5m0 2v3m0 2v3m0 1.98v3m0 2v3m0 2v3m0 1.98v3m0 2v3m0 2v3m0 2v2.98m0 2v3m0 2v3m0 2v3m0 1.98v3m0 2v3m0 2v3m0 1.98v3m0 2v3m0 2v3m0 2v2.98m0 2v3m0 2v3m0 2v3m0 1.98v3m0 2v3m0 2v3m0 1.98v3m0 2v3m0 2v3m0 2v2.98m0 2v3m0 2v3m0 2v2.98m0 2v3m0 2v3m0 2v3m0 1.98v3m0 2v3m0 2v3m0 2v2.98m0 2v3m0 2v3m0 2v2.98m0 2v3m0 2v3m0 2v3m0 1.98v3m0 2v3m0 2v3m0 2v2.98m0 2v3m0 2v3m0 2v2.98m0 2v3m0 2v3m0 2v3m0 1.98v3m0 2v3m0 2v3m0 1.98v3m0 2v3m0 2v3m0 2v2.98m0 2v3m0 2v3m0 2v2.98m0 2v3m0 2v3m0 2v3m0 1.98v3m0 2v3m0 2v3m0 2v2.98m0 2v3m0 2v3m0 2v2.98m0 2v3m0 2v3m0 2v3m0 1.98v3m0 2v3m0 2v3m0 2V759m0 2v3m0 2v3m0 2v2.98m0 2v3m0 2v3m0 2v3m0 1.98v3m0 2v3m0 2v3m0 1.98v3m0 2v3m0 2v3m0 2v2.98m0 2v3m0 2v3m0 2v2.98m0 2v3m0 2v3m0 2v3m0 1.98v3m0 2v3m0 2v3m0 2v2.98m0 2v3m0 2v3m0 2v2.98m0 2v3m0 2v3m0 2v3m0 1.98v3m0 2v3m0 2v3m0 1.98v3m0 2v3m0 2v3m0 2v2.98m0 2v3m0 2v3m0 2v3m0 1.98v3m0 2v3m0 2v3m0 1.98v3m0 2v3m0 2v3m0 2v2.98m0 2v3m0 2v3m0 2v2.98m0 2v3m0 2v3m0 2v3m0 1.98v3m0 2v3m0 2v3m0 1.98v3m0 2v3m0 2v3m0 2v2.98m0 2v3m0 2v3m0 2v2.98m0 2v3m0 2v3m0 2v3m0 2v2.98m0 2v3m0 2v3m0 2v2.98m0 2v3m0 2v3m0 2v3m0 1.98v3m0 2v3m0 2v3m0 1.98v3m0 2v3m0 2v3m0 2v2.98m0 2v3m0 2v3m0 2v2.98m0 2v1.5l-.1 1.25m-.45 1.6l-.32.78-.66 1.07-.27.32m-1.18 1.18l-.32.27-1.07.66-.77.32m-1.6.45l-1.26.1h-1.5m-2 0h-2.98m-2 0h-2.98m-2 0h-3m-1.98 0h-3m-1.98 0h-3m-2 0h-2.98m-2 0h-2.98m-2 0h-2.98m-2 0h-3m-1.98 0h-3m-2 0h-2.98m-2 0h-2.98m-2 0h-2.98m-2 0h-3m-1.98 0h-3m-1.98 0h-3m-2 0h-2.98m-2 0h-2.98m-2 0h-2.98m-2 0h-3m-1.98 0h-3m-1.98 0h-3m-2 0h-2.98m-2 0h-2.98m-2 0h-3m-1.98 0h-3m-1.98 0h-3m-2 0h-2.98m-2 0H1326m-2 0H1321m-2 0h-3m-1.98 0h-3m-1.98 0h-3m-2 0h-2.98m-2 0h-2.98m-2 0h-2.98m-2 0h-3m-1.98 0h-3m-2 0h-2.98m-2 0h-2.98m-2 0h-2.98m-2 0h-3m-1.98 0h-3m-1.98 0h-3m-2 0h-2.98m-2 0h-2.98m-2 0h-2.98m-2 0h-3m-1.98 0h-3m-1.98 0h-3m-2 0h-2.98m-2 0h-2.98m-2 0h-3m-1.98 0h-3m-1.98 0h-3m-2 0h-2.98m-2 0h-2.98m-2 0h-2.98m-2 0h-3m-1.98 0h-3m-2 0H1168l-1.25-.1m-1.6-.45l-.78-.32-1.07-.66-.32-.27m-1.18-1.18l-.27-.32-.66-1.07-.32-.77m-.45-1.6l-.1-1.26v-1.5m0-2v-3m0-2v-3m0-1.98v-3m0-2v-3m0-2v-3m0-1.98v-3m0-2v-3m0-2v-3m0-2v-2.98m0-2v-3m0-2v-3m0-2v-2.98m0-2v-3m0-2v-3m0-2v-3m0-1.98v-3m0-2v-3m0-2v-3m0-2v-2.98m0-2v-3m0-2v-3m0-2v-2.98m0-2v-3m0-2v-3m0-2v-3m0-1.98v-3m0-2v-3m0-2v-3m0-2v-2.98m0-2v-3m0-2v-3m0-2v-2.98m0-2v-3m0-2v-3m0-2v-3m0-1.98v-3m0-2v-3m0-2v-3m0-2v-2.98m0-2v-3m0-2v-3m0-2v-2.98m0-2v-3m0-2v-3m0-2v-3m0-1.98v-3m0-2v-3m0-2v-3m0-2v-2.98m0-2v-3m0-2v-3m0-2v-2.98m0-2v-3m0-2v-3m0-2v-3m0-1.98v-3m0-2v-3m0-2v-3m0-1.98v-3m0-2v-3m0-2v-3m0-2v-2.98m0-2v-3m0-2v-3m0-2v-2.98m0-2v-3m0-2v-3m0-2v-3m0-1.98v-3m0-2v-3m0-2v-3m0-2v-2.98m0-2v-3m0-2v-3m0-2v-2.98m0-2v-3m0-2v-3m0-2v-3m0-1.98v-3m0-2v-3m0-2v-3m0-2V761m0-2v-3m0-2v-3m0-2v-2.98m0-2v-3m0-2v-3m0-2v-3m0-1.98v-3m0-2v-3m0-2v-3m0-1.98v-3m0-2v-3m0-2v-3m0-2v-2.98m0-2v-3m0-2v-3m0-2v-2.98m0-2v-3m0-2v-3m0-2v-3m0-1.98v-3m0-2v-3m0-2v-3m0-2v-2.98m0-2v-3m0-2v-3m0-2v-2.98m0-2v-3m0-2v-3m0-2v-3m0-1.98v-3m0-2v-3m0-2v-3m0-1.98v-3m0-2v-3m0-2v-3m0-2v-2.98m0-2v-3m0-2v-3m0-2v-3m0-1.98v-3m0-2v-3m0-2v-3m0-1.98v-3m0-2v-3m0-2v-3m0-2v-2.98m0-2v-3m0-2v-3m0-2v-2.98m0-2v-3m0-2v-3m0-2v-3m0-1.98v-3m0-2v-3m0-2v-3m0-2v-2.98m0-2v-3m0-2v-3m0-2v-2.98m0-2v-3m0-2v-3m0-2v-3m0-1.98v-3m0-2v-3m0-2v-3m0-2v-2.98m0-2v-3m0-2v-3m0-2v-2.98m0-2v-3m0-2v-3m0-2v-3m0-1.98v-3m0-2v-3m0-2v-3m0-1.98v-3m0-2v-3m0-2v-3m0-2v-2.98m0-2v-3m0-2v-3m0-2v-2.98m0-2V348l.1-1.25" stroke="#d86613" fill="none"/><path d="M1292 340h56v56h-56v-56z" stroke="#fff" stroke-opacity="0" fill="#d86613"/><path d="M1311.68 363.73l-1.14 1.13 2.33 2.34H1300v1.6h12.87l-2.33 2.34 1.14 1.13 4.27-4.27-4.27-4.27zM1340 367.2h-12.87l2.33-2.34-1.14-1.13-4.27 4.27 4.27 4.27 1.14-1.13-2.33-2.34H1340v-1.6zM1319.2 350.63v12.87h1.6v-12.87l2.34 2.33 1.13-1.13-4.27-4.28-4.27 4.28 1.13 1.13 2.34-2.33zM1320.8 385.37V372.5h-1.6v12.87l-2.34-2.33-1.13 1.13 4.27 4.28 4.27-4.28-1.13-1.13-2.34 2.33z" stroke="#fff" stroke-opacity="0" fill="#fff"/><use xlink:href="#b" transform="matrix(1,0,0,1,1160,411) translate(109.55 14.4)"/><use xlink:href="#c" transform="matrix(1,0,0,1,1160,411) translate(151.55 14.4)"/><path d="M1180 448a8 8 0 0 1 8-8h264a8 8 0 0 1 8 8v164a8 8 0 0 1-8 8h-264a8 8 0 0 1-8-8z" stroke="#0e76d4" fill="#fff" fill-opacity="0"/><path d="M1180 440h56v56h-56v-56z" stroke="#000" stroke-opacity="0" fill-opacity="0"/><path d="M1218.55 452.8c-8.8-.97-10.3-4.8-10.3-4.8s-2 4.95-14.65 4.95v20.48c0 2.47 1.35 4.83 3.28 6.82 4.33 4.56 11.36 7.67 11.36 7.67s14.64-6.4 14.64-14.5v-20.47c-1.6 0-3.05-.08-4.33-.16z" stroke="#000" stroke-opacity="0" fill="#0072c6"/><path d="M1211.92 461.2l6.64-8.4c-8.8-.96-10.3-4.8-10.3-4.8s-2.03 4.96-14.66 4.96v20.48c0 2.48 1.35 4.8 3.27 6.8l4.97-6.25 10.08-12.8z" stroke="#000" stroke-opacity="0" fill="#3999c6" fill-opacity=".4"/><path d="M1196.64 467.52v4.9c0 2 1.12 3.82 2.64 5.4 3.44 3.7 9.04 6.1 9.04 6.1v-16.4h-11.68z" stroke="#000" stroke-opacity="0" fill="#fff" fill-opacity=".3"/><path d="M1208.24 483.92s11.68-5.13 11.68-11.53v-4.88h-11.68v16.4zm0-31.84s-1.6 4-11.68 4v11.44h11.68v-15.44z" stroke="#000" stroke-opacity="0" fill="#fff" fill-opacity=".7"/><path d="M1216.4 455.92c-6.96-.8-8.16-3.76-8.16-3.76v15.36h11.68v-11.44c-1.3 0-2.48-.08-3.52-.16z" stroke="#000" stroke-opacity="0" fill="#fff" fill-opacity=".3"/><use xlink:href="#d" transform="matrix(1,0,0,1,1256,460) translate(0 14.4)"/><use xlink:href="#e" transform="matrix(1,0,0,1,1256,460) translate(69.9 14.4)"/><path d="M1180 928a8 8 0 0 1 8-8h264a8 8 0 0 1 8 8v224a8 8 0 0 1-8 8h-264a8 8 0 0 1-8-8z" stroke="#0e76d4" fill="#fff" fill-opacity="0"/><path d="M1180 920h56v56h-56v-56z" stroke="#000" stroke-opacity="0" fill-opacity="0"/><path d="M1218.55 932.8c-8.8-.97-10.3-4.8-10.3-4.8s-2 4.95-14.65 4.95v20.48c0 2.47 1.35 4.83 3.28 6.83 4.33 4.55 11.36 7.66 11.36 7.66s14.64-6.4 14.64-14.5v-20.47c-1.6 0-3.05-.08-4.33-.16z" stroke="#000" stroke-opacity="0" fill="#0072c6"/><path d="M1211.92 941.2l6.64-8.4c-8.8-.96-10.3-4.8-10.3-4.8s-2.03 4.97-14.66 4.97v20.47c0 2.48 1.35 4.8 3.27 6.8l4.97-6.25 10.08-12.8z" stroke="#000" stroke-opacity="0" fill="#3999c6" fill-opacity=".4"/><path d="M1196.64 947.52v4.9c0 2 1.12 3.83 2.64 5.42 3.44 3.68 9.04 6.08 9.04 6.08v-16.4h-11.68z" stroke="#000" stroke-opacity="0" fill="#fff" fill-opacity=".3"/><path d="M1208.24 963.92s11.68-5.13 11.68-11.53v-4.88h-11.68v16.4zm0-31.84s-1.6 4-11.68 4v11.44h11.68v-15.44z" stroke="#000" stroke-opacity="0" fill="#fff" fill-opacity=".7"/><path d="M1216.4 935.92c-6.96-.8-8.16-3.76-8.16-3.76v15.36h11.68v-11.44c-1.3 0-2.48-.08-3.52-.16z" stroke="#000" stroke-opacity="0" fill="#fff" fill-opacity=".3"/><use xlink:href="#d" transform="matrix(1,0,0,1,1256,940) translate(0 14.4)"/><use xlink:href="#e" transform="matrix(1,0,0,1,1256,940) translate(69.9 14.4)"/><path d="M440 208a8 8 0 0 1 8-8h1204a8 8 0 0 1 8 8v1024a8 8 0 0 1-8 8H448a8 8 0 0 1-8-8z" stroke="#232f3e" fill="#fff" fill-opacity="0"/><path d="M440 200h56v56h-56v-56z" stroke="#fff" stroke-opacity="0" fill="#232f3e"/><path d="M480.88 241.22h-25c-4.13.05-7.57-3.1-7.9-7.2v-.64c-.15-3.4 1.97-6.38 5.25-7.36v-.66c.12-4.22 2.44-7.75 6.24-9.57 4.13-1.86 8.73-.96 11.8 2.3 1.1 1.1 1.85 2.2 2.45 3.6 1.2-1 2.72-1.32 4.24-.9 2.24.8 3.68 2.74 3.76 5.1 3.68.65 6.32 3.8 6.28 7.56 0 7.07-7.04 7.73-7.12 7.76zm-26.7-13.88c-2.83.6-4.75 3.14-4.6 6.04v.53c.3 3.33 3.1 5.84 6.4 5.76h24.98c3.04-.3 5.4-2.64 5.68-5.7.28-3.43-2.24-6.5-5.68-6.78-.44-.05-.72-.44-.64-.87.08-1.83-1-3.44-2.72-4.13-1.32-.37-2.64.13-3.44 1.24-.2.25-.44.38-.76.33-.28-.05-.48-.24-.6-.5-.6-1.6-1.4-2.85-2.6-4.04-2.7-2.8-6.6-3.6-10.13-2-3.24 1.6-5.2 4.63-5.32 8.24-.04.4-.04.74 0 1.14.04.4-.2.76-.6.84z" stroke="#fff" stroke-opacity="0" fill="#fff"/><use xlink:href="#f" transform="matrix(1,0,0,1,511,220) translate(0 17.317708333333336)"/><path d="M240 48a8 8 0 0 1 8-8h1464a8 8 0 0 1 8 8v1244a8 8 0 0 1-8 8H248a8 8 0 0 1-8-8z" stroke="#232f3e" fill="#fff" fill-opacity="0"/><path d="M240 40h56v56h-56V40z" stroke="#fff" stroke-opacity="0" fill="#232f3e"/><path d="M258.22 65.87c-.04.48.04.87.17 1.34.1.4.28.7.48 1.08.04.1.08.2.08.33 0 .2-.12.36-.28.46l-.95.62c-.12.08-.25.13-.37.13-.16 0-.33-.06-.45-.2-.2-.2-.36-.43-.52-.7-.17-.25-.3-.53-.45-.86-1.1 1.37-2.63 2.1-4.4 2.06-1.15.06-2.13-.3-2.96-1.08-.78-.8-1.14-1.76-1.1-2.85-.04-1.23.4-2.28 1.35-3.08 1.07-.86 2.3-1.23 3.66-1.16.57 0 1.02.02 1.6.1.57.1 1.1.2 1.72.33v-1.1c.08-.88-.16-1.67-.7-2.37-.74-.56-1.56-.8-2.46-.7-.53 0-1.03.07-1.6.2-.58.13-1.03.3-1.6.5l-.5.2h-.24c-.2 0-.33-.16-.33-.45v-.75c0-.18.04-.34.12-.5.12-.16.24-.26.4-.33.66-.3 1.2-.5 1.9-.67.77-.2 1.47-.3 2.3-.28 1.47-.13 2.78.26 3.9 1.2.94 1.05 1.35 2.28 1.22 3.67zm-6.07 2.28c.57 0 1.06-.1 1.6-.28.57-.2 1.03-.5 1.44-.96.23-.27.4-.57.48-.93.12-.45.16-.84.16-1.3V64c-.53-.1-.94-.17-1.44-.2H253c-.8-.08-1.55.12-2.2.58-.54.45-.8 1.04-.75 1.73-.04.62.13 1.16.54 1.6.44.38.97.52 1.55.45zm12 1.6c-.22.02-.42-.03-.6-.15-.15-.17-.23-.36-.32-.6l-3.5-11.5-.1-.62c0-.24.1-.37.36-.37h1.47c.2 0 .37.04.57.15.17.18.25.37.3.6l2.5 9.96 2.38-9.93c0-.24.08-.44.28-.6.17-.12.37-.16.58-.15h1.2c.24 0 .4.03.6.14.17.2.25.37.3.6l2.33 9.95 2.56-10c.04-.2.16-.4.33-.58.15-.1.36-.17.56-.14h1.4c.16 0 .33.12.37.3v.31s0 .2-.12.35L274 68.98c-.05.22-.13.42-.3.6-.2.1-.37.14-.57.13h-1.27c-.25.04-.46-.02-.62-.15-.16-.16-.25-.36-.3-.6l-2.3-9.6-2.28 9.6c-.05.24-.13.44-.3.6-.2.13-.4.2-.6.16zm19.2.38c-.82 0-1.52-.07-2.3-.25-.65-.13-1.15-.3-1.72-.6-.2-.1-.37-.23-.45-.42-.08-.14-.12-.28-.12-.43v-.75c0-.3.12-.46.32-.46h.3l.36.16c.58.23 1.03.4 1.6.5.62.14 1.15.2 1.8.2.8.05 1.5-.1 2.2-.5.48-.3.77-.8.73-1.4.04-.4-.13-.76-.38-1.04-.46-.4-.95-.65-1.52-.8l-2.18-.68c-.94-.25-1.73-.73-2.38-1.5-.5-.65-.74-1.35-.74-2.18 0-.6.12-1.08.4-1.6.3-.5.63-.9 1.08-1.22.5-.38.98-.6 1.6-.78.66-.18 1.2-.26 1.9-.25.32-.03.6-.03.97 0l1 .16.8.23.67.25c.16.1.28.22.45.38.08.15.12.3.12.5v.7c0 .3-.12.47-.37.47-.2-.03-.37-.1-.57-.18-.95-.42-1.8-.6-2.88-.58-.7-.04-1.3.1-1.97.4-.5.3-.74.8-.7 1.36 0 .4.13.76.45 1.05.5.4 1 .65 1.6.82l2.1.67c.95.24 1.7.7 2.3 1.44.5.64.7 1.3.7 2.1 0 .63-.13 1.17-.37 1.73-.3.55-.62.95-1.1 1.32-.5.4-1 .66-1.6.84-.75.23-1.4.33-2.15.34zM286.1 77.48c-5.6 3.82-11.36 5.58-18.15 5.56-8.54.05-15.82-2.74-22.16-8.45-.5-.42 0-1 .48-.68 7.07 4.05 14.03 5.9 22.2 5.9 6.1-.04 11.3-1.1 16.93-3.47.83-.35 1.52.55.7 1.14z" stroke="#fff" stroke-opacity="0" fill="#fff"/><path d="M288.16 75.2c-.64-.8-4.16-.38-5.75-.2-.46 0-.53-.36-.1-.67 2.8-1.97 7.42-1.4 8-.73.6.67-.14 5.28-2.78 7.48-.4.34-.78.15-.6-.28.54-1.52 1.86-4.83 1.24-5.6z" stroke="#fff" stroke-opacity="0" fill="#fff"/><path d="M960 328a8 8 0 0 1 8-8h584a8 8 0 0 1 8 8v304a8 8 0 0 1-8 8H968a8 8 0 0 1-8-8z" fill="#147eba" fill-opacity=".13"/><path d="M960 320h56v56h-56v-56z" stroke="#fff" stroke-opacity="0" fill="#147eba"/><path d="M1003.38 342.18c-.15-.17-.34-.25-.56-.25h-5.15v-5.58c-.03-2.54-.96-4.7-2.84-6.4-1.9-1.83-4.15-2.75-6.77-2.75-2.65 0-4.9.83-6.8 2.62-1.9 1.7-2.87 3.87-2.9 6.4v5.66h-5.15c-.24 0-.43.1-.58.25-.16.17-.22.34-.22.6V368c0 .43.34.8.8.8h29.6c.46 0 .8-.37.8-.8v-25.28c0-.2-.06-.38-.22-.54zm-23.46-5.9c.03-2.13.8-3.88 2.37-5.3 1.6-1.5 3.52-2.2 5.73-2.2 2.22 0 4.12.75 5.7 2.25 1.54 1.4 2.32 3.2 2.32 5.32v5.58H979.9zm22.1 30.94h-28.03v-23.7h28z" stroke="#fff" stroke-opacity="0" fill="#fff"/><path d="M987.2 357.3v6.25h1.6v-6.23c2.13-.4 3.62-2.2 3.63-4.35 0-2.43-1.97-4.4-4.4-4.43-2.2-.03-4.06 1.5-4.44 3.68-.42 2.4 1.2 4.68 3.6 5.1zm.82-7.15c.78 0 1.44.27 2 .83.54.55.82 1.2.8 2 .03 1.54-1.2 2.8-2.74 2.8h-.06c-1.56.13-2.92-1.04-3.04-2.6-.12-1.56 1.05-2.93 2.6-3.03.16-.02.28-.02.44 0z" stroke="#fff" stroke-opacity="0" fill="#fff"/><use xlink:href="#g" transform="matrix(1,0,0,1,1031,340) translate(0 17.317708333333336)"/><path d="M560 868a8 8 0 0 1 8-8h264a8 8 0 0 1 8 8v324a8 8 0 0 1-8 8H568a8 8 0 0 1-8-8z" stroke="#dd3522" fill="#fff" fill-opacity="0"/><use xlink:href="#h" transform="matrix(1,0,0,1,560,880) translate(92.09830729166667 17.317708333333336)"/><path d="M96.8 748.2c9.84 6.12 15.96 17.28 15.96 29.04 0 1.56-1.2 2.76-2.76 2.76H50c-1.56 0-2.76-1.2-2.76-2.76 0-14.64 9-27 21.6-31.8-5.4-3.6-8.88-9.6-8.88-16.44 0-11.04 9-19.92 20.04-19.92 11.16 0 20.16 8.88 20.16 19.92 0 6.84-3.48 12.84-8.88 16.44 1.92.72 3.72 1.68 5.52 2.76zm27.24-49.08c9.84 6.12 15.96 17.16 15.96 29.04 0 1.56-1.2 2.76-2.76 2.76h-30v-5.52h27.12c-.72-8.88-5.64-17.04-13.2-21.72-4.2-2.52-9-3.96-13.92-3.96-6.24 0-12.36 2.28-17.28 6.48l-3.6-4.08c3-2.52 6.24-4.44 9.72-5.76-5.4-3.6-8.88-9.6-8.88-16.44 0-11.04 9-19.92 20.16-19.92 11.04 0 20.04 8.88 20.04 19.92 0 6.84-3.48 12.84-8.88 16.44 1.92.72 3.84 1.68 5.52 2.76zM52.76 725.4v5.52h-30c-1.56 0-2.76-1.2-2.76-2.76 0-14.64 9-27 21.6-31.8-5.4-3.6-9-9.6-9-16.44 0-11.04 9.12-19.92 20.16-19.92 11.16 0 20.16 8.88 20.16 19.92 0 6.84-3.6 12.84-8.88 16.44 1.92.72 3.72 1.68 5.52 2.76 1.44.84 2.76 1.8 4.08 3l-3.6 4.08c-1.08-.96-2.16-1.68-3.36-2.52-4.2-2.52-9-3.96-13.92-3.96-14.16 0-25.8 11.28-27.12 25.68zm.12 49.2h54.24c-.84-9-5.76-17.16-13.2-21.84-4.2-2.52-9-3.96-13.92-3.96-14.16 0-25.8 11.28-27.12 25.8zm-14.76-94.68c0 7.92 6.6 14.4 14.64 14.4 8.16 0 14.64-6.48 14.64-14.4 0-8.04-6.48-14.52-14.64-14.52-8.04 0-14.64 6.48-14.64 14.52zm54.48 0c0 7.92 6.6 14.4 14.76 14.4 8.04 0 14.64-6.48 14.64-14.4 0-8.04-6.6-14.52-14.64-14.52-8.16 0-14.76 6.48-14.76 14.52zM65.36 729c0 7.92 6.6 14.4 14.64 14.4 8.16 0 14.76-6.48 14.76-14.4 0-8.04-6.6-14.4-14.76-14.4-8.04 0-14.64 6.36-14.64 14.4z" stroke="#000" stroke-opacity="0" fill="#242f3e"/><path d="M47.64 773.13l.34-2.65.12-.92 4.64-38.75-31.1-2.53 7.3-21.56 17.2-10.95-11.04-14.3 5.1-14.18 11.6-5.07 15.33 7.03 3.6 12.57-9.86 15 12.76 5.18 12.88.12 12.66-6-9.05-12.8 4.07-15.9 15.2-4.63 13.46 8.77 1.86 13.6-9.4 10.96 17.05 13.38 5.33 18.8-30.28 2.53 4.87 40.72-1.62 6h-62.2z" stroke="#000" stroke-opacity="0" fill-opacity="0"/><use xlink:href="#i" transform="matrix(1,0,0,1,-10,789) translate(66.55 14.4)"/><path d="M560 328a8 8 0 0 1 8-8h264a8 8 0 0 1 8 8v304a8 8 0 0 1-8 8H568a8 8 0 0 1-8-8z" stroke="#dd3522" fill="#fff" fill-opacity="0"/><use xlink:href="#j" transform="matrix(1,0,0,1,560,340) translate(92.09830729166667 17.317708333333336)"/><path d="M960 868a8 8 0 0 1 8-8h584a8 8 0 0 1 8 8v324a8 8 0 0 1-8 8H968a8 8 0 0 1-8-8z" fill="#147eba" fill-opacity=".13"/><path d="M960 860h56v56h-56v-56z" stroke="#fff" stroke-opacity="0" fill="#147eba"/><path d="M1003.38 882.18c-.15-.17-.34-.25-.56-.25h-5.15v-5.58c-.03-2.54-.96-4.7-2.84-6.4-1.9-1.84-4.15-2.75-6.77-2.75-2.65 0-4.9.83-6.8 2.62-1.9 1.7-2.87 3.87-2.9 6.4v5.66h-5.15c-.24 0-.43.1-.58.25-.16.17-.22.34-.22.6V908c0 .43.34.8.8.8h29.6c.46 0 .8-.37.8-.8v-25.28c0-.2-.06-.38-.22-.54zm-23.46-5.9c.03-2.13.8-3.88 2.37-5.3 1.6-1.5 3.52-2.2 5.73-2.2 2.22 0 4.12.75 5.7 2.25 1.54 1.4 2.32 3.2 2.32 5.32v5.58H979.9zm22.1 30.94h-28.03v-23.7h28z" stroke="#fff" stroke-opacity="0" fill="#fff"/><path d="M987.2 897.3v6.25h1.6v-6.23c2.13-.4 3.62-2.2 3.63-4.35 0-2.43-1.97-4.4-4.4-4.43-2.2-.03-4.06 1.5-4.44 3.68-.42 2.4 1.2 4.68 3.6 5.1zm.82-7.15c.78 0 1.44.27 2 .83.54.55.82 1.2.8 2 .03 1.54-1.2 2.8-2.74 2.8h-.06c-1.56.13-2.92-1.04-3.04-2.6-.12-1.56 1.05-2.93 2.6-3.03.16-.02.28-.02.44 0z" stroke="#fff" stroke-opacity="0" fill="#fff"/><use xlink:href="#k" transform="matrix(1,0,0,1,1031,880) translate(0 17.317708333333336)"/><path d="M240 760c-22.08 0-40-17.92-40-40s17.92-40 40-40 40 17.92 40 40-17.92 40-40 40zm0-76.56c-20.24 0-36.56 16.32-36.56 36.56 0 20.24 16.32 36.56 36.56 36.56 20.24 0 36.56-16.32 36.56-36.56 0-20.24-16.32-36.56-36.56-36.56z" stroke="#fff" stroke-opacity="0" fill="#693cc5"/><path d="M259.14 744.03h-6.38c-.96 0-1.7-.75-1.7-1.7v-33c-3.47-1.8-6.77-2.6-10.64-2.7-4.26.1-7.8 1.04-11.55 3.07v32.63c0 .95-.75 1.7-1.67 1.7h-6.34c-.96 0-1.7-.75-1.7-1.7V705.2c0-.5.2-.93.57-1.26 6.1-5 12.85-7.32 20.7-7.13 7.4-.14 13.8 1.94 19.75 6.33.46.34.67.8.67 1.33v37.87c0 .95-.75 1.7-1.7 1.7zm-4.67-3.4h2.96V705.3c-5.2-3.58-10.67-5.2-17-5.1-6.73-.18-12.52 1.7-17.86 5.77v34.66h2.92V708.6c0-.65.32-1.22.9-1.5 4.5-2.55 8.85-3.78 14.02-3.87 4.7.14 8.7 1.18 12.88 3.4h.17c.63.28 1 .85 1 1.56z" stroke="#fff" stroke-opacity="0" fill="#693cc5"/><path d="M139.4 720h44.22" stroke="#3a414a" fill="none"/><path d="M139.4 720.5h-.4l-.23-1h.63z" stroke="#3a414a" stroke-width=".05" fill="#3a414a"/><path d="M198.38 720l-14.26 4.63v-9.26z" stroke="#3a414a" fill="#3a414a"/><path d="M409.02 699.92v-9.44l-2.53 1.2v-1.2l2.66-1.5h1.46v11zM415.27 699.92l3.6-9.7h-4.88v-1.32h6.48v1.2l-3.54 9.82zM422.72 689.73c.48-.35.93-.6 1.5-.78.48-.14.93-.2 1.45-.16.78-.07 1.48.2 2.02.76.54.62.78 1.34.73 2.16 0 .54-.1 1-.3 1.5-.33.72-.67 1.3-1.14 1.93-.55.77-1.47 1.96-2.78 3.53h4.6V700h-6.35v-1.18c1.14-1.4 2-2.53 2.62-3.4.5-.7.9-1.33 1.28-2.13.27-.5.4-1 .4-1.58 0-1.1-.47-1.7-1.36-1.7-1.02.1-1.86.42-2.68 1zM431.6 700.08c-.27 0-.52-.08-.72-.28-.2-.2-.3-.45-.3-.74 0-.54.42-1 .96-1.02h.07c.3 0 .54.1.74.3.2.2.3.43.3.72 0 .3-.1.54-.3.75-.2.2-.45.3-.73.28zM437.56 699.92v-9.44l-2.53 1.2v-1.2l2.67-1.5h1.47v11zM446.65 689.95c-.74-.04-1.4.3-1.78.95-.5.97-.7 1.9-.7 2.97.72-.44 1.42-.64 2.25-.64.84-.03 1.57.3 2.1.94.56.7.82 1.47.77 2.37.04.98-.25 1.86-.9 2.62-.63.68-1.44 1-2.38.97-1.07.1-2.04-.4-2.6-1.3-.7-1.32-.97-2.6-.87-4.07-.1-1.63.23-3.05 1.02-4.48.63-1 1.68-1.56 2.88-1.5.42 0 .77.05 1.18.16.37.08.68.2 1.02.37v1.18c-.33-.15-.62-.25-.97-.33-.36-.1-.66-.16-1.03-.2zm-.67 4.55c-.67 0-1.23.15-1.8.46v.1c-.07 1.04.06 1.93.43 2.9.26.57.8.93 1.44.9 1.07 0 1.6-.73 1.6-2.22.05-.6-.1-1.1-.42-1.58-.3-.4-.75-.6-1.24-.56zM451.92 700.08c-.3 0-.54-.08-.74-.28-.2-.2-.3-.45-.3-.74 0-.56.47-1.02 1.04-1.02.56 0 1 .46 1 1.02.03.3-.07.54-.27.75-.2.2-.45.3-.73.28zM457.96 700.13c-1.12.06-2.1-.5-2.64-1.46-.7-1.38-1-2.72-.9-4.26-.1-1.54.2-2.86.9-4.25.57-.93 1.54-1.43 2.64-1.36 1.1-.06 2.05.5 2.6 1.44.7 1.38.98 2.72.9 4.26.08 1.54-.2 2.87-.9 4.26-.57.93-1.52 1.43-2.6 1.37zm0-1.3c.66 0 1.2-.4 1.4-1.05.37-1.15.5-2.18.44-3.38.07-1.22-.07-2.25-.45-3.4-.14-.5-.5-.84-1-1-.76-.2-1.58.23-1.8 1-.38 1.16-.5 2.18-.45 3.4-.06 1.2.07 2.23.45 3.38.18.65.74 1.06 1.4 1.06zM463.98 700.08c-.28 0-.53-.08-.73-.28-.2-.2-.3-.45-.3-.74 0-.56.47-1.02 1.03-1.02.57 0 1.02.46 1.02 1.02.02.3-.08.54-.3.75-.2.2-.44.3-.72.28zM470.02 700.13c-1.1.05-2.06-.5-2.6-1.46-.7-1.38-1-2.72-.9-4.26-.1-1.53.2-2.86.9-4.25.57-.92 1.52-1.42 2.6-1.37 1.1-.04 2.06.5 2.6 1.46.7 1.38 1 2.72.9 4.26.1 1.54-.2 2.87-.9 4.26-.56.93-1.5 1.43-2.6 1.37zm0-1.3c.67 0 1.22-.4 1.4-1.05.38-1.14.52-2.18.45-3.38.07-1.22-.07-2.25-.45-3.4-.15-.48-.5-.84-1-.98-.77-.23-1.58.2-1.8.98-.37 1.15-.5 2.18-.45 3.4-.06 1.2.07 2.24.44 3.38.2.64.76 1.06 1.42 1.06zM409.02 725.97v-9.4l-2.53 1.2v-1.3l2.66-1.5h1.46v11zM415.27 725.97l3.6-9.7h-4.88v-1.3h6.48v1.16l-3.54 9.84zM422.72 715.78c.5-.35.93-.58 1.5-.78.48-.18.92-.25 1.45-.23.78-.06 1.47.2 2.02.75.52.6.76 1.3.73 2.1 0 .53-.1 1-.3 1.5-.32.72-.66 1.3-1.14 1.93-.55.76-1.47 1.95-2.78 3.55h4.6v1.3h-6.35v-1.18c1.14-1.42 2-2.53 2.62-3.4.5-.67.9-1.27 1.28-2.02.27-.5.4-1 .4-1.56 0-1.1-.47-1.7-1.36-1.7-1.02.1-1.86.42-2.68 1.02zM431.6 726.1c-.54 0-1-.42-1-.96v-.07c-.02-.3.07-.54.28-.75.2-.2.45-.28.73-.27.3-.02.54.08.74.27.2.2.3.46.3.75 0 .28-.1.53-.3.73-.2.2-.45.3-.73.3zM437.56 725.97v-9.4l-2.53 1.2v-1.3l2.67-1.5h1.47v11zM446.65 716c-.74-.03-1.4.3-1.78.95-.5.98-.7 1.9-.68 3.02.7-.45 1.4-.65 2.22-.66.8-.04 1.53.27 2.06.9.58.68.83 1.46.78 2.36.05 1-.24 1.86-.88 2.6-.63.7-1.45 1.04-2.4 1-1.06.07-2-.4-2.58-1.3-.68-1.3-.95-2.56-.85-4.03-.1-1.65.23-3.07 1.03-4.5.6-1.05 1.65-1.62 2.85-1.57.42 0 .78.03 1.18.13.38.1.7.2 1.03.37v1.16c-.33-.14-.62-.24-.97-.3-.35-.08-.65-.12-1-.12zm-.68 4.56c-.66 0-1.2.15-1.8.44v.13c-.05 1.04.08 1.92.44 2.9.26.57.8.92 1.44.9 1.07 0 1.6-.74 1.6-2.25.04-.6-.1-1.1-.42-1.58-.32-.38-.75-.57-1.25-.54zM451.92 726.1c-.55 0-1-.42-1.03-.96v-.07c-.02-.3.08-.54.28-.75.43-.36 1.04-.36 1.47 0 .2.2.3.46.3.75 0 .54-.42 1-.97 1.02h-.06zM457.87 725.97v-9.4l-2.55 1.2v-1.3l2.67-1.5h1.45v11zM463.98 726.1c-.54 0-1-.42-1.02-.96v-.07c0-.3.1-.54.3-.75.42-.36 1.03-.36 1.45 0 .22.2.3.46.3.75.02.54-.4 1-.95 1.02h-.07zM470.02 726.2c-1.1.02-2.06-.52-2.6-1.48-.7-1.4-1-2.7-.9-4.26-.1-1.55.2-2.88.9-4.26.54-.95 1.5-1.5 2.6-1.44 1.1-.05 2.06.5 2.6 1.44.7 1.38.98 2.7.9 4.26.1 1.55-.2 2.88-.9 4.27-.54.96-1.5 1.5-2.6 1.46zm0-1.3c.67 0 1.2-.42 1.4-1.05.38-1.15.52-2.2.45-3.4.07-1.2-.07-2.24-.45-3.38-.14-.5-.5-.85-1-1-.77-.22-1.58.22-1.8 1-.37 1.15-.5 2.18-.45 3.4-.06 1.2.08 2.22.44 3.38.2.64.76 1.05 1.42 1.05zM409.02 753.6v-9.4l-2.53 1.18v-1.3l2.66-1.5h1.46v11zM415.27 753.6l3.6-9.7h-4.88v-1.33h6.48v1.2l-3.54 9.82zM422.72 743.4c.48-.34.93-.58 1.5-.78.48-.18.92-.26 1.45-.25.78-.05 1.47.2 2.02.75.53.63.78 1.34.73 2.16 0 .55-.1 1.02-.3 1.53-.33.73-.67 1.3-1.14 1.93-.55.77-1.47 1.94-2.78 3.53h4.6v1.33h-6.35v-1.2c1.14-1.43 2-2.54 2.62-3.4.5-.67.9-1.28 1.28-2.04.26-.5.38-1 .4-1.58 0-1.1-.47-1.7-1.36-1.7-1.02.1-1.86.42-2.68 1.03zM431.6 753.74c-.27.02-.52-.07-.72-.27-.2-.2-.3-.46-.3-.74 0-.55.42-1 .96-1.02h.07c.3 0 .54.1.74.3.2.2.3.44.3.73 0 .28-.1.53-.3.74-.2.2-.45.3-.73.27zM437.56 753.6v-9.4l-2.53 1.18v-1.3l2.67-1.5h1.47v11zM446.65 743.62c-.74-.03-1.4.3-1.78.95-.5.98-.7 1.92-.68 3.02.7-.44 1.4-.65 2.22-.66.8-.03 1.52.27 2.06.9.57.68.82 1.47.78 2.36.05 1-.24 1.86-.88 2.63-.64.67-1.46 1-2.4.96-1.06.07-2-.4-2.58-1.3-.68-1.32-.95-2.6-.85-4.06-.1-1.65.23-3.07 1.03-4.5.6-1.05 1.65-1.6 2.85-1.58.42 0 .77.05 1.18.14.38.1.7.22 1.03.4v1.14c-.33-.13-.62-.22-.97-.3-.35-.08-.65-.12-1-.12zm-.68 4.5c-.66.02-1.2.16-1.8.45v.14c-.06 1.04.08 1.92.44 2.9.26.56.8.92 1.44.9 1.08 0 1.6-.75 1.6-2.23.05-.6-.1-1.1-.42-1.58-.3-.4-.75-.6-1.25-.57zM451.92 753.74c-.3.02-.54-.07-.74-.27-.2-.2-.3-.46-.3-.74 0-.57.47-1.02 1.04-1.02.56 0 1.02.46 1.02 1.03 0 .28-.1.53-.3.74-.2.2-.44.3-.72.27zM455.1 743.4c.47-.34.92-.58 1.48-.78.5-.18.94-.26 1.47-.25.78-.05 1.46.2 2.02.75.53.63.78 1.34.73 2.16 0 .55-.1 1.02-.3 1.53-.32.73-.66 1.3-1.13 1.93-.54.77-1.47 1.94-2.78 3.53h4.6v1.33h-6.36v-1.2c1.14-1.43 2-2.54 2.63-3.4.5-.67.87-1.28 1.26-2.04.26-.5.38-1 .38-1.58 0-1.1-.44-1.7-1.35-1.7-1 .1-1.85.42-2.67 1.03zM463.98 753.74c-.28.02-.53-.07-.73-.27-.2-.2-.3-.46-.3-.74 0-.57.47-1.02 1.03-1.02.57 0 1.02.46 1.02 1.03 0 .28-.08.53-.3.74-.2.2-.44.3-.72.27zM470.02 753.8c-1.1.03-2.06-.5-2.6-1.46-.7-1.37-.98-2.7-.9-4.2-.1-1.56.2-2.9.9-4.27.54-.96 1.5-1.5 2.6-1.46 1.1-.02 2.06.5 2.6 1.47.7 1.38 1 2.7.9 4.26.1 1.55-.2 2.88-.9 4.26-.56.93-1.5 1.44-2.6 1.4zm0-1.3c.67 0 1.22-.4 1.4-1.05.38-1.15.52-2.18.45-3.4.07-1.2-.07-2.23-.45-3.38-.15-.5-.5-.84-1-.98-.77-.24-1.58.2-1.8.97-.38 1.15-.5 2.18-.45 3.4-.06 1.2.08 2.23.44 3.38.2.64.76 1.06 1.42 1.06z" stroke="#fff" stroke-opacity="0" fill="#693cc5"/><path d="M478.32 706h-76.64c-.88 0-1.68-.76-1.68-1.7v-20.6c0-.93.8-1.7 1.68-1.7h76.64c.88 0 1.68.77 1.68 1.7v20.6c0 .94-.8 1.7-1.68 1.7zm-74.88-3.38h73.12V685.4h-73.12zM478.32 733.02h-76.64c-.88 0-1.68-.77-1.68-1.7v-20.64c0-.93.8-1.7 1.68-1.7h76.64c.88 0 1.68.77 1.68 1.7v20.64c0 .93-.8 1.7-1.68 1.7zm-74.88-3.4h73.12v-17.25h-73.12zM478.32 760h-76.64c-.88 0-1.68-.77-1.68-1.7v-20.6c0-.94.8-1.7 1.68-1.7h76.64c.88 0 1.68.76 1.68 1.7v20.6c0 .93-.8 1.7-1.68 1.7zm-74.88-3.38h73.12v-17.25h-73.12z" stroke="#fff" stroke-opacity="0" fill="#693cc5"/><path d="M401.82 684.2h76.4V758h-76.4v-73.8z" stroke="#fff" stroke-opacity="0" stroke-width=".4" fill="#fff" fill-opacity="0"/><use xlink:href="#l" transform="matrix(1,0,0,1,370,769) translate(7.199999999999989 14.4)"/><use xlink:href="#m" transform="matrix(1,0,0,1,370,769) translate(57.64999999999999 14.4)"/><use xlink:href="#n" transform="matrix(1,0,0,1,370,769) translate(105.1 14.4)"/><path d="M280.5 720h103.12" stroke="#3a414a" fill="none"/><path d="M280.5 720.5h-.53l.03-.5-.02-.5h.53z" stroke="#3a414a" stroke-width=".05" fill="#3a414a"/><path d="M398.38 720l-14.26 4.63v-9.26z" stroke="#3a414a" fill="#3a414a"/><path d="M740 400c33.12 0 60 26.88 60 60 0 33.12-26.88 60-60 60-33.12 0-60-26.88-60-60 0-33.12 26.88-60 60-60zm0 114.6c30.12 0 54.6-24.48 54.6-54.6s-24.48-54.6-54.6-54.6-54.6 24.48-54.6 54.6 24.48 54.6 54.6 54.6zm47.28-54.12c1.08 1.08 1.08 2.76 0 3.84l-12 11.88c-.48.6-1.2.84-1.92.84-.36 0-.6 0-.96-.24-1.08-.36-1.68-1.32-1.68-2.52v-9.12h-20.88v25.92c0 1.44-1.2 2.64-2.64 2.64h-21v-5.4h18.24v-23.16h-18.72v-5.52h18.72v-23.16H726.2v-5.4h21c1.44 0 2.64 1.2 2.64 2.64v25.92h20.88v-9.24c0-1.08.6-2.04 1.68-2.52.96-.36 2.16-.12 2.88.6zm-76.56-9.72l11.88 9.48c.6.48 1.08 1.32 1.08 2.16 0 .84-.48 1.56-1.08 2.16l-11.88 9.48c-.48.36-1.08.6-1.8.6-.36 0-.72-.12-1.08-.24-.96-.48-1.56-1.44-1.56-2.52V452.8c0-.96.6-1.92 1.56-2.4.84-.48 2.04-.36 2.88.36zm0 26.16l11.88 9.6c.6.48 1.08 1.32 1.08 2.16 0 .84-.48 1.56-1.08 2.04l-11.88 9.6c-.48.36-1.08.6-1.8.6-.36 0-.72-.12-1.08-.24-.96-.48-1.56-1.44-1.56-2.52v-19.08c0-1.08.6-2.04 1.56-2.4.84-.48 2.04-.36 2.88.24zm0-54.84l11.88 9.6c.6.48 1.08 1.2 1.08 2.04 0 .84-.48 1.68-1.08 2.16l-11.88 9.6c-.48.36-1.08.6-1.8.6-.36 0-.72-.12-1.08-.36-.96-.48-1.56-1.32-1.56-2.4v-19.08c0-1.08.6-2.04 1.56-2.52.84-.48 2.04-.36 2.88.36zm65.4 45.6l5.4-5.28-5.4-5.4zm-64.44-1.44l4.92-3.84-4.92-3.84zm0-28.56l4.92-3.96-4.92-3.84zm0 54.84l4.92-3.84-4.92-3.96z" stroke="#000" stroke-opacity="0" fill="#4d27aa"/><use xlink:href="#o" transform="matrix(1,0,0,1,650,529) translate(13.949999999999989 14.4)"/><use xlink:href="#p" transform="matrix(1,0,0,1,650,529) translate(55.89999999999999 14.4)"/><use xlink:href="#q" transform="matrix(1,0,0,1,650,529) translate(95.1 14.4)"/><path d="M737.5 970c33.12 0 60 26.88 60 60 0 33.12-26.88 60-60 60-33.12 0-60-26.88-60-60 0-33.12 26.88-60 60-60zm0 114.6c30.12 0 54.6-24.48 54.6-54.6s-24.48-54.6-54.6-54.6-54.6 24.48-54.6 54.6 24.48 54.6 54.6 54.6zm47.28-54.12c1.08 1.08 1.08 2.76 0 3.84l-12 11.88c-.48.6-1.2.84-1.92.84-.36 0-.6 0-.96-.24-1.08-.36-1.68-1.32-1.68-2.52v-9.12h-20.88v25.92c0 1.44-1.2 2.64-2.64 2.64h-21v-5.4h18.24v-23.16h-18.72v-5.52h18.72v-23.16H723.7v-5.4h21c1.44 0 2.64 1.2 2.64 2.64v25.92h20.88v-9.24c0-1.08.6-2.04 1.68-2.52.96-.36 2.16-.12 2.88.6zm-76.56-9.72l11.88 9.48c.6.48 1.08 1.32 1.08 2.16 0 .84-.48 1.56-1.08 2.16l-11.88 9.48c-.48.36-1.08.6-1.8.6-.36 0-.72-.12-1.08-.24-.96-.48-1.56-1.44-1.56-2.52v-19.08c0-.96.6-1.92 1.56-2.4.84-.48 2.04-.36 2.88.36zm0 26.16l11.88 9.6c.6.48 1.08 1.32 1.08 2.16 0 .84-.48 1.56-1.08 2.04l-11.88 9.6c-.48.36-1.08.6-1.8.6-.36 0-.72-.12-1.08-.24-.96-.48-1.56-1.44-1.56-2.52v-19.08c0-1.08.6-2.04 1.56-2.4.84-.48 2.04-.36 2.88.24zm0-54.84l11.88 9.6c.6.48 1.08 1.2 1.08 2.04 0 .84-.48 1.68-1.08 2.16l-11.88 9.6c-.48.36-1.08.6-1.8.6-.36 0-.72-.12-1.08-.36-.96-.48-1.56-1.32-1.56-2.4v-19.08c0-1.08.6-2.04 1.56-2.52.84-.48 2.04-.36 2.88.36zm65.4 45.6l5.4-5.28-5.4-5.4zm-64.44-1.44l4.92-3.84-4.92-3.84zm0-28.56l4.92-3.96-4.92-3.84zm0 54.84l4.92-3.84-4.92-3.96z" stroke="#000" stroke-opacity="0" fill="#4d27aa"/><use xlink:href="#o" transform="matrix(1,0,0,1,647.5,1099) translate(13.949999999999989 14.4)"/><use xlink:href="#p" transform="matrix(1,0,0,1,647.5,1099) translate(55.89999999999999 14.4)"/><use xlink:href="#q" transform="matrix(1,0,0,1,647.5,1099) translate(95.1 14.4)"/><path d="M800.5 460h143.12" stroke="#3a414a" fill="none"/><path d="M800.5 460.5H800l.02-.5-.02-.5h.53z" stroke="#3a414a" stroke-width=".05" fill="#3a414a"/><path d="M958.38 460l-14.26 4.63v-9.26z" stroke="#3a414a" fill="#3a414a"/><path d="M969.02 1008.92v-9.44l-2.53 1.2v-1.2l2.66-1.5h1.46v11zM975.27 1008.92l3.6-9.7h-4.88v-1.32h6.48v1.2l-3.54 9.82zM982.72 998.73c.48-.35.93-.6 1.5-.78.48-.14.93-.2 1.45-.16.78-.07 1.48.2 2.03.76.54.62.78 1.34.73 2.16 0 .54-.1 1-.3 1.5-.33.72-.66 1.3-1.14 1.93-.55.77-1.47 1.96-2.78 3.53h4.6v1.33h-6.35v-1.18c1.14-1.4 2-2.53 2.62-3.4.5-.7.9-1.33 1.28-2.13.27-.5.4-1 .4-1.58 0-1.1-.47-1.7-1.36-1.7-1.02.1-1.86.42-2.68 1zM991.6 1009.08c-.27 0-.52-.08-.72-.28-.2-.2-.3-.45-.3-.74 0-.54.4-1 .96-1.02h.07c.3 0 .54.1.74.3.2.2.3.43.3.72 0 .3-.1.54-.3.75-.2.2-.45.3-.73.28zM997.57 1008.92v-9.44l-2.54 1.2v-1.2l2.67-1.5h1.47v11zM1006.65 998.95c-.74-.04-1.4.3-1.78.95-.5.97-.7 1.9-.7 2.97.72-.44 1.42-.64 2.25-.64.84-.03 1.57.3 2.1.94.56.7.82 1.47.77 2.37.04.98-.25 1.86-.9 2.62-.63.68-1.44 1-2.38.97-1.07.1-2.04-.4-2.6-1.3-.7-1.32-.97-2.6-.87-4.07-.1-1.63.23-3.05 1.03-4.48.63-1 1.67-1.56 2.87-1.5.42 0 .77.05 1.18.16.37.08.67.2 1.02.37v1.18c-.33-.15-.62-.25-.97-.33-.36-.1-.66-.16-1.03-.2zm-.67 4.55c-.67 0-1.23.15-1.8.46v.1c-.07 1.04.07 1.93.43 2.9.26.57.8.93 1.44.9 1.07 0 1.6-.73 1.6-2.22.05-.6-.1-1.1-.42-1.58-.3-.4-.75-.6-1.24-.56zM1011.9 1009.08c-.27 0-.5-.08-.72-.28-.2-.2-.3-.45-.28-.74 0-.56.45-1.02 1-1.02.58 0 1.03.46 1.03 1.02.02.3-.08.54-.28.75-.2.2-.45.3-.74.28zM1017.96 1009.13c-1.12.06-2.1-.5-2.64-1.46-.72-1.38-1-2.72-.9-4.26-.1-1.54.2-2.86.9-4.25.57-.93 1.54-1.43 2.64-1.36 1.1-.06 2.05.5 2.58 1.44.72 1.38 1 2.72.9 4.26.1 1.54-.18 2.87-.9 4.26-.55.93-1.5 1.43-2.58 1.37zm0-1.3c.66 0 1.2-.4 1.4-1.05.37-1.15.5-2.18.44-3.38.07-1.22-.07-2.25-.45-3.4-.14-.5-.5-.84-1-1-.76-.2-1.58.23-1.8 1-.38 1.16-.5 2.18-.45 3.4-.06 1.2.07 2.23.45 3.38.18.65.74 1.06 1.4 1.06zM1023.98 1009.08c-.28 0-.53-.08-.73-.28-.2-.2-.3-.45-.3-.74 0-.56.47-1.02 1.03-1.02.57 0 1.02.46 1.02 1.02.02.3-.08.54-.3.75-.2.2-.43.3-.72.28zM1030.02 1009.13c-1.1.05-2.06-.5-2.6-1.46-.7-1.38-1-2.72-.9-4.26-.1-1.53.2-2.86.9-4.25.57-.92 1.52-1.42 2.6-1.37 1.1-.04 2.06.5 2.6 1.46.7 1.38 1 2.72.9 4.26.1 1.54-.2 2.87-.9 4.26-.56.93-1.5 1.43-2.6 1.37zm0-1.3c.66 0 1.22-.4 1.4-1.05.38-1.14.52-2.18.45-3.38.07-1.22-.07-2.25-.45-3.4-.14-.48-.5-.84-1-.98-.77-.23-1.58.2-1.8.98-.37 1.15-.5 2.18-.45 3.4-.07 1.2.07 2.24.44 3.38.2.64.76 1.06 1.42 1.06zM969.02 1034.97v-9.4l-2.53 1.2v-1.3l2.66-1.5h1.46v11zM975.27 1034.97l3.6-9.7h-4.88v-1.3h6.48v1.16l-3.54 9.84zM982.72 1024.78c.5-.35.93-.58 1.5-.78.48-.18.92-.25 1.45-.23.78-.06 1.47.2 2.03.75.52.6.76 1.3.73 2.1 0 .53-.1 1-.3 1.5-.32.72-.66 1.3-1.14 1.93-.55.76-1.47 1.95-2.78 3.55h4.6v1.3h-6.35v-1.18c1.14-1.42 2-2.53 2.62-3.4.5-.67.9-1.27 1.28-2.02.27-.5.4-1 .4-1.56 0-1.1-.47-1.7-1.36-1.7-1.02.1-1.86.42-2.68 1.02zM991.6 1035.1c-.54 0-1-.42-1-.96v-.07c-.02-.3.07-.54.28-.75.2-.2.45-.28.73-.27.3-.02.54.08.74.27.2.2.3.46.3.75 0 .28-.1.53-.3.73-.2.2-.45.3-.73.3zM997.57 1034.97v-9.4l-2.54 1.2v-1.3l2.67-1.5h1.47v11zM1006.65 1025c-.74-.03-1.4.3-1.78.95-.5.98-.7 1.9-.68 3.02.7-.44 1.4-.65 2.22-.66.8-.04 1.53.27 2.06.9.58.68.83 1.46.78 2.36.05 1-.24 1.86-.88 2.6-.63.7-1.45 1.04-2.4 1-1.06.07-2-.4-2.58-1.3-.68-1.3-.95-2.56-.85-4.03-.1-1.65.23-3.07 1.03-4.5.6-1.05 1.65-1.62 2.85-1.57.42 0 .78.03 1.18.13.38.1.7.2 1.03.37v1.16c-.33-.14-.62-.24-.97-.3-.35-.08-.65-.12-1-.12zm-.68 4.56c-.66 0-1.2.15-1.8.44v.13c-.05 1.04.08 1.92.44 2.9.26.57.8.92 1.44.9 1.07 0 1.6-.74 1.6-2.25.04-.6-.1-1.1-.42-1.58-.32-.38-.75-.57-1.25-.54zM1011.9 1035.1c-.53 0-1-.42-1-.96v-.07c-.02-.3.08-.54.28-.75.43-.36 1.04-.36 1.47 0 .2.2.3.46.3.75 0 .54-.42 1-.97 1.02h-.07zM1017.87 1034.97v-9.4l-2.55 1.2v-1.3l2.67-1.5h1.46v11zM1023.98 1035.1c-.54 0-1-.42-1.02-.96v-.07c0-.3.1-.54.3-.75.42-.36 1.03-.36 1.45 0 .22.2.32.46.3.75.02.54-.4 1-.95 1.02h-.07zM1030.02 1035.2c-1.1.02-2.06-.52-2.6-1.48-.7-1.4-1-2.7-.9-4.26-.1-1.55.2-2.88.9-4.26.54-.95 1.5-1.5 2.6-1.44 1.1-.05 2.06.5 2.6 1.44.7 1.38.98 2.7.9 4.26.1 1.55-.2 2.88-.9 4.27-.54.96-1.5 1.5-2.6 1.46zm0-1.3c.66 0 1.2-.42 1.4-1.05.38-1.15.52-2.2.45-3.4.07-1.2-.07-2.24-.45-3.38-.14-.5-.5-.85-1-1-.77-.2-1.58.22-1.8 1-.37 1.15-.5 2.18-.45 3.4-.06 1.2.08 2.22.44 3.38.2.64.76 1.05 1.42 1.05zM969.02 1062.6v-9.4l-2.53 1.18v-1.3l2.66-1.5h1.46v11zM975.27 1062.6l3.6-9.7h-4.88v-1.33h6.48v1.2l-3.54 9.82zM982.72 1052.4c.48-.34.93-.58 1.5-.78.48-.18.92-.26 1.45-.25.78-.05 1.47.2 2.03.75.53.63.78 1.34.73 2.16 0 .55-.1 1.02-.3 1.53-.33.73-.66 1.3-1.14 1.93-.55.77-1.47 1.94-2.78 3.54h4.6v1.32h-6.35v-1.2c1.14-1.43 2-2.54 2.62-3.4.5-.67.9-1.28 1.28-2.04.26-.5.38-1 .4-1.58 0-1.1-.47-1.7-1.36-1.7-1.02.1-1.86.42-2.68 1.03zM991.6 1062.74c-.27.02-.52-.07-.72-.27-.2-.2-.3-.46-.3-.74 0-.55.4-1 .96-1.02h.07c.3 0 .54.1.74.3.2.2.3.44.3.73 0 .28-.1.53-.3.74-.2.2-.45.3-.73.27zM997.57 1062.6v-9.4l-2.54 1.18v-1.3l2.67-1.5h1.47v11zM1006.65 1052.62c-.74-.03-1.4.3-1.78.95-.5.98-.7 1.92-.68 3.02.7-.44 1.4-.65 2.22-.66.8-.03 1.52.27 2.06.9.57.68.82 1.47.78 2.36.04 1-.24 1.86-.88 2.63-.64.67-1.46 1-2.4.96-1.06.07-2-.4-2.58-1.32-.68-1.3-.95-2.57-.85-4.04-.1-1.65.23-3.07 1.03-4.5.6-1.05 1.65-1.6 2.85-1.58.42 0 .78.05 1.18.14.38.1.7.22 1.03.4v1.14c-.34-.13-.62-.22-.97-.3-.35-.08-.65-.12-1-.12zm-.68 4.5c-.66.02-1.2.16-1.8.45v.14c-.05 1.04.08 1.92.44 2.9.26.57.8.92 1.44.9 1.08 0 1.6-.75 1.6-2.23.05-.6-.1-1.1-.42-1.58-.3-.4-.75-.6-1.25-.57zM1011.9 1062.74c-.27.02-.5-.07-.72-.27-.2-.2-.3-.46-.3-.74 0-.57.47-1.02 1.03-1.02.58 0 1.04.46 1.04 1.03 0 .28-.1.53-.3.74-.2.2-.44.3-.73.27zM1015.1 1052.4c.48-.34.92-.58 1.48-.78.5-.18.94-.26 1.46-.25.8-.05 1.48.2 2.03.75.53.63.78 1.34.73 2.16 0 .55-.1 1.02-.3 1.53-.32.73-.66 1.3-1.13 1.93-.54.77-1.47 1.94-2.78 3.54h4.6v1.32h-6.36v-1.2c1.14-1.43 2-2.54 2.63-3.4.5-.67.87-1.28 1.26-2.04.26-.5.38-1 .38-1.58 0-1.1-.44-1.7-1.35-1.7-1 .1-1.85.42-2.67 1.03zM1023.98 1062.74c-.28.02-.53-.07-.73-.27-.2-.2-.3-.46-.3-.74 0-.57.47-1.02 1.03-1.02.57 0 1.03.46 1.03 1.03.02.28-.08.53-.3.74-.2.2-.43.3-.72.27zM1030.02 1062.8c-1.1.03-2.06-.5-2.6-1.46-.7-1.37-.98-2.7-.9-4.2-.1-1.56.2-2.9.9-4.27.54-.95 1.5-1.5 2.6-1.46 1.1-.02 2.06.5 2.6 1.47.7 1.38 1 2.7.9 4.26.1 1.55-.2 2.88-.9 4.26-.56.93-1.5 1.44-2.6 1.4zm0-1.3c.66 0 1.22-.4 1.4-1.05.38-1.15.52-2.18.45-3.4.07-1.2-.07-2.23-.45-3.38-.14-.5-.5-.84-1-.98-.77-.24-1.58.2-1.8.97-.38 1.15-.5 2.18-.45 3.4-.07 1.2.08 2.23.44 3.38.2.64.76 1.06 1.42 1.06z" stroke="#fff" stroke-opacity="0" fill="#693cc5"/><path d="M1038.32 1015h-76.64c-.88 0-1.68-.76-1.68-1.7v-20.6c0-.93.8-1.7 1.68-1.7h76.64c.88 0 1.68.77 1.68 1.7v20.6c0 .94-.8 1.7-1.68 1.7zm-74.88-3.38h73.12V994.4h-73.12zM1038.32 1042.02h-76.64c-.88 0-1.68-.77-1.68-1.7v-20.65c0-.93.8-1.7 1.68-1.7h76.64c.88 0 1.68.77 1.68 1.7v20.64c0 .93-.8 1.7-1.68 1.7zm-74.88-3.4h73.12v-17.25h-73.12zM1038.32 1069h-76.64c-.88 0-1.68-.77-1.68-1.7v-20.6c0-.94.8-1.7 1.68-1.7h76.64c.88 0 1.68.76 1.68 1.7v20.6c0 .93-.8 1.7-1.68 1.7zm-74.88-3.38h73.12v-17.24h-73.12z" stroke="#fff" stroke-opacity="0" fill="#693cc5"/><path d="M961.82 993.2h76.4v73.8h-76.4v-73.8z" stroke="#fff" stroke-opacity="0" stroke-width=".4" fill="#fff" fill-opacity="0"/><use xlink:href="#r" transform="matrix(1,0,0,1,930,1078) translate(4.299999999999983 14.4)"/><use xlink:href="#m" transform="matrix(1,0,0,1,930,1078) translate(59.649999999999984 14.4)"/><use xlink:href="#s" transform="matrix(1,0,0,1,930,1078) translate(107.1 14.4)"/><path d="M798 1030h145.62" stroke="#3a414a" fill="none"/><path d="M798 1030.5h-.52l.02-.5-.02-.5h.53z" stroke="#3a414a" stroke-width=".05" fill="#3a414a"/><path d="M958.38 1030l-14.26 4.63v-9.27z" stroke="#3a414a" fill="#3a414a"/><path d="M480.5 721h27.25a12 12 0 0 0 12-12V492a12 12 0 0 1 12-12h11.37" stroke="#3a414a" fill="none"/><path d="M480.5 721.5h-.5v-1h.5z" stroke="#3a414a" stroke-width=".05" fill="#3a414a"/><path d="M557.88 480l-14.26 4.63v-9.26z" stroke="#3a414a" fill="#3a414a"/><path d="M480.5 721h27.25a12 12 0 0 1 12 12v285a12 12 0 0 0 12 12h11.37" stroke="#3a414a" fill="none"/><path d="M480.5 721.5h-.5v-1h.5z" stroke="#3a414a" stroke-width=".05" fill="#3a414a"/><path d="M557.88 1030l-14.26 4.63v-9.27z" stroke="#3a414a" fill="#3a414a"/><path d="M360 408a8 8 0 0 1 8-8h24a8 8 0 0 1 8 8v64a8 8 0 0 1-8 8h-24a8 8 0 0 1-8-8z" stroke="#000" stroke-opacity="0" fill="#fff" fill-opacity="0"/><use xlink:href="#t" transform="matrix(-1.8369701987210297e-16,-1,1,-1.8369701987210297e-16,365,475.00000000000006) translate(17.130864197530876 19.488888888888887)"/><use xlink:href="#u" transform="matrix(-1.8369701987210297e-16,-1,1,-1.8369701987210297e-16,365,475.00000000000006) translate(53.85246913580247 19.488888888888887)"/><path d="M360 997a8 8 0 0 1 8-8h24a8 8 0 0 1 8 8v64a8 8 0 0 1-8 8h-24a8 8 0 0 1-8-8z" stroke="#000" stroke-opacity="0" fill="#fff" fill-opacity="0"/><use xlink:href="#t" transform="matrix(-1.8369701987210297e-16,-1,1,-1.8369701987210297e-16,364.9999999999999,1064) translate(18.31543209876544 19.488888888888887)"/><use xlink:href="#v" transform="matrix(-1.8369701987210297e-16,-1,1,-1.8369701987210297e-16,364.9999999999999,1064) translate(55.03703703703704 19.488888888888887)"/><path d="M1260 480h120v120h-120V480z" stroke="#fff" stroke-opacity="0" stroke-width="2" fill="#d86613"/><path d="M1356.8 544.8h-8.02v-3.18h8.02v-38.44h-38.43v8.02h-3.2v-8.02c0-1.75 1.45-3.18 3.2-3.18h38.43c1.75 0 3.18 1.43 3.18 3.18v38.44c0 1.75-1.43 3.18-3.18 3.18zM1321.6 580h-38.43c-1.75 0-3.2-1.43-3.2-3.18v-38.44c0-1.75 1.45-3.18 3.2-3.18h8v3.18h-8v38.44h38.43v-8.02h3.18v8.02c0 1.75-1.43 3.18-3.18 3.18z" stroke="#fff" stroke-opacity="0" stroke-width="2" fill="#fff"/><path d="M1345.6 525.6v-3.2h-4.8c-.12-1.7-1.5-3.08-3.2-3.2v-4.8h-3.2v4.8h-4.77v-4.8h-3.23v4.8h-4.8v-4.8h-3.2v4.8h-4.8v-4.8h-3.17v4.8h-4.82v-4.8h-3.2v4.8c-1.7.12-3.1 1.5-3.2 3.2h-4.8v3.2h4.8v4.83h-4.8v3.17h4.8v4.8h-4.8v3.2h4.8v4.8h-4.8v3.23h4.8v4.76h-4.8v3.2h4.8c.12 1.7 1.5 3.08 3.2 3.2v4.8h3.2v-4.8h4.83v4.8h3.17v-4.8h4.8v4.8h3.2v-4.8h4.8v4.8h3.23v-4.8h4.76v4.8h3.2v-4.8c1.7-.12 3.1-1.5 3.2-3.2h4.8v-3.2h-4.8v-4.77h4.8v-3.23h-4.8v-4.8h4.8v-3.2h-4.8v-4.8h4.8v-3.17h-4.8v-4.82zm-8 31.7c0 .16-.14.3-.3.3h-34.6c-.16 0-.3-.14-.3-.3v-34.6c0-.16.14-.3.3-.3h34.6c.16 0 .3.14.3.3z" stroke="#fff" stroke-opacity="0" stroke-width="2" fill="#fff"/><path d="M1260 969h120v120h-120V969z" stroke="#fff" stroke-opacity="0" stroke-width="2" fill="#d86613"/><path d="M1356.8 1033.8h-8.02v-3.18h8.02v-38.44h-38.43v8.02h-3.2v-8.02c0-1.75 1.45-3.18 3.2-3.18h38.43c1.75 0 3.18 1.43 3.18 3.18v38.44c0 1.75-1.43 3.18-3.18 3.18zM1321.6 1069h-38.43c-1.75 0-3.2-1.43-3.2-3.18v-38.44c0-1.75 1.45-3.18 3.2-3.18h8v3.18h-8v38.44h38.43v-8.02h3.18v8.02c0 1.75-1.43 3.18-3.18 3.18z" stroke="#fff" stroke-opacity="0" stroke-width="2" fill="#fff"/><path d="M1345.6 1014.6v-3.2h-4.8c-.12-1.7-1.5-3.08-3.2-3.2v-4.8h-3.2v4.8h-4.77v-4.8h-3.23v4.8h-4.8v-4.8h-3.2v4.8h-4.8v-4.8h-3.17v4.8h-4.82v-4.8h-3.2v4.8c-1.7.12-3.1 1.5-3.2 3.2h-4.8v3.2h4.8v4.83h-4.8v3.17h4.8v4.8h-4.8v3.2h4.8v4.8h-4.8v3.23h4.8v4.76h-4.8v3.2h4.8c.12 1.7 1.5 3.1 3.2 3.2v4.8h3.2v-4.8h4.83v4.8h3.17v-4.8h4.8v4.8h3.2v-4.8h4.8v4.8h3.23v-4.8h4.76v4.8h3.2v-4.8c1.7-.12 3.1-1.5 3.2-3.2h4.8v-3.2h-4.8v-4.77h4.8v-3.23h-4.8v-4.8h4.8v-3.2h-4.8v-4.8h4.8v-3.17h-4.8v-4.82zm-8 31.7c0 .16-.14.3-.3.3h-34.6c-.16 0-.3-.14-.3-.3v-34.6c0-.16.14-.3.3-.3h34.6c.16 0 .3.14.3.3z" stroke="#fff" stroke-opacity="0" stroke-width="2" fill="#fff"/><path d="M920 780c-22.08 0-40-17.92-40-40s17.92-40 40-40 40 17.92 40 40-17.92 40-40 40zm0-76.8c-20.32 0-36.8 16.48-36.8 36.8 0 20.32 16.48 36.8 36.8 36.8 20.32 0 36.8-16.48 36.8-36.8 0-20.32-16.48-36.8-36.8-36.8z" stroke="#fff" stroke-opacity="0" stroke-width="3" fill="#693cc5"/><path d="M943.86 751.2h-3.06v-6.4c0-.9-.7-1.6-1.58-1.6h-4.83v-6.4c0-.9-.73-1.58-1.6-1.58h-11.2v-4.8h11.2c.87 0 1.6-.76 1.6-1.6V714.4c0-.9-.73-1.6-1.6-1.6h-25.6c-.88 0-1.6.7-1.6 1.6v14.42c0 .84.72 1.6 1.6 1.6h11.2v4.8h-11.2c-.88 0-1.6.7-1.6 1.6v6.38h-4.78c-.9 0-1.63.7-1.63 1.6v6.4h-3.06c-.87 0-1.58.73-1.58 1.58v8.03c0 .9.7 1.6 1.58 1.6h7.84c.92 0 1.63-.7 1.63-1.6v-8.02c0-.85-.7-1.6-1.62-1.6h-1.58v-4.8h8v4.8h-1.58c-.92 0-1.63.75-1.63 1.6v8.03c0 .9.7 1.6 1.62 1.6h8c.86 0 1.57-.7 1.57-1.6v-8.02c0-.85-.72-1.6-1.58-1.6h-3.2v-6.4c0-.88-.73-1.57-1.64-1.57h-3.16v-4.8h22.36v4.8h-3.16c-.92 0-1.63.7-1.63 1.6v6.4h-3.22c-.86 0-1.58.73-1.58 1.58v8.03c0 .9.72 1.6 1.58 1.6h8c.9 0 1.63-.7 1.63-1.6v-8.02c0-.85-.7-1.6-1.62-1.6h-1.58v-4.8h8v4.8h-1.74c-.86 0-1.58.75-1.58 1.6v8.03c0 .9.72 1.6 1.58 1.6h8.05c.88 0 1.6-.7 1.6-1.6v-8.02-.05c-.06-.85-.78-1.54-1.64-1.54zm-41.46 7.98h-4.63v-4.77h4.63zm12.8-4.77v4.78h-4.8v-4.77zm-6.38-27.22v-11.16h22.36v11.16zm20.78 32h-4.8v-4.77h4.8zm12.63 0h-4.8v-4.77h4.8z" stroke="#fff" stroke-opacity="0" stroke-width="3" fill="#693cc5"/><use xlink:href="#w" transform="matrix(1,0,0,1,850,789) translate(13.749999999999986 14.4)"/><use xlink:href="#x" transform="matrix(1,0,0,1,850,789) translate(103.1 14.4)"/><use xlink:href="#y" transform="matrix(1,0,0,1,850,789) translate(76.25 36)"/><path d="M920 699.5V572.77a12 12 0 0 1 12-12h11.62" stroke="#3a414a" fill="none"/><path d="M920.5 700.03l-.5-.03-.5.02v-.53h1z" stroke="#3a414a" stroke-width=".05" fill="#3a414a"/><path d="M958.38 560.77l-14.26 4.64v-9.26z" stroke="#3a414a" fill="#3a414a"/><path d="M920 780.5v151.87a12 12 0 0 0 12 12h11.62" stroke="#3a414a" fill="none"/><path d="M920 780l.5-.02v.53h-1v-.53z" stroke="#3a414a" stroke-width=".05" fill="#3a414a"/><path d="M958.38 944.37L944.12 949v-9.26z" stroke="#3a414a" fill="#3a414a"/><path d="M969.02 438.93v-9.45l-2.53 1.2v-1.2l2.66-1.5h1.46v11zM975.27 438.92l3.6-9.7h-4.88v-1.32h6.48v1.2l-3.54 9.82zM982.72 428.73c.48-.35.93-.6 1.5-.78.48-.14.93-.2 1.45-.16.78-.07 1.48.2 2.03.76.54.62.78 1.34.73 2.16 0 .54-.1 1-.3 1.5-.33.72-.66 1.3-1.14 1.93-.55.77-1.47 1.96-2.78 3.53h4.6V439h-6.35v-1.18c1.14-1.4 2-2.53 2.62-3.4.5-.7.9-1.33 1.28-2.13.27-.5.4-1 .4-1.58 0-1.1-.47-1.7-1.36-1.7-1.02.1-1.86.42-2.68 1zM991.6 439.08c-.27 0-.52-.08-.72-.27-.2-.2-.3-.45-.3-.74 0-.55.4-1 .96-1.02h.07c.3 0 .54.08.74.3.2.2.3.44.3.72 0 .3-.1.54-.3.75-.2.2-.45.3-.73.28zM997.57 438.93v-9.45l-2.54 1.2v-1.2l2.67-1.5h1.47v11zM1006.65 428.95c-.74-.04-1.4.3-1.78.95-.5.97-.7 1.9-.7 2.97.72-.44 1.42-.64 2.25-.64.84-.03 1.57.3 2.1.94.56.7.82 1.47.77 2.37.04.98-.25 1.86-.9 2.62-.63.68-1.44 1-2.38.96-1.07.1-2.04-.4-2.6-1.3-.7-1.3-.97-2.58-.87-4.06-.1-1.63.23-3.05 1.03-4.48.63-1 1.67-1.56 2.87-1.5.42 0 .77.05 1.18.16.37.08.67.2 1.02.37v1.18c-.33-.15-.62-.25-.97-.33-.36-.1-.66-.16-1.03-.2zm-.67 4.55c-.67 0-1.23.15-1.8.46v.1c-.07 1.04.07 1.93.43 2.9.26.57.8.93 1.44.92 1.07 0 1.6-.75 1.6-2.24.05-.6-.1-1.1-.42-1.58-.3-.4-.75-.6-1.24-.56zM1011.9 439.07c-.27.02-.5-.07-.72-.26-.2-.2-.3-.45-.28-.74 0-.56.45-1.02 1-1.02.58 0 1.03.46 1.03 1.02.02.3-.08.54-.28.75-.2.2-.45.3-.74.27zM1017.96 439.13c-1.12.06-2.1-.5-2.64-1.46-.72-1.38-1-2.72-.9-4.26-.1-1.54.2-2.86.9-4.25.57-.93 1.54-1.43 2.64-1.36 1.1-.06 2.05.5 2.58 1.44.72 1.38 1 2.7.9 4.26.1 1.54-.18 2.87-.9 4.26-.55.93-1.5 1.43-2.58 1.37zm0-1.3c.66 0 1.2-.4 1.4-1.05.37-1.15.5-2.18.44-3.38.07-1.22-.07-2.25-.45-3.4-.14-.5-.5-.84-1-1-.76-.2-1.58.23-1.8 1-.38 1.16-.5 2.18-.45 3.4-.06 1.2.07 2.23.45 3.38.18.65.74 1.06 1.4 1.06zM1023.98 439.07c-.28.02-.53-.07-.73-.26-.2-.2-.3-.45-.3-.74 0-.56.47-1.02 1.03-1.02.57 0 1.02.46 1.02 1.02.02.3-.08.54-.3.75-.2.2-.43.3-.72.27zM1030.02 439.13c-1.1.05-2.06-.5-2.6-1.46-.7-1.38-1-2.72-.9-4.26-.1-1.53.2-2.86.9-4.25.57-.92 1.52-1.42 2.6-1.37 1.1-.04 2.06.5 2.6 1.46.7 1.38 1 2.72.9 4.26.1 1.55-.2 2.87-.9 4.26-.56.93-1.5 1.43-2.6 1.37zm0-1.3c.66 0 1.22-.4 1.4-1.05.38-1.14.52-2.18.45-3.38.07-1.22-.07-2.25-.45-3.4-.14-.48-.5-.84-1-.98-.77-.23-1.58.2-1.8.98-.37 1.15-.5 2.18-.45 3.4-.07 1.2.07 2.24.44 3.38.2.64.76 1.06 1.42 1.06zM969.02 464.97v-9.4l-2.53 1.2v-1.3l2.66-1.5h1.46v11zM975.27 464.97l3.6-9.7h-4.88v-1.3h6.48v1.16l-3.54 9.84zM982.72 454.78c.5-.35.93-.58 1.5-.78.48-.18.92-.25 1.45-.23.78-.06 1.47.2 2.03.75.52.6.76 1.3.73 2.1 0 .53-.1 1-.3 1.5-.32.72-.66 1.3-1.14 1.93-.55.76-1.47 1.95-2.78 3.55h4.6v1.3h-6.35v-1.18c1.14-1.42 2-2.53 2.62-3.4.5-.67.9-1.27 1.28-2.02.27-.5.4-1 .4-1.56 0-1.1-.47-1.7-1.36-1.7-1.02.1-1.86.42-2.68 1.02zM991.6 465.1c-.54 0-1-.42-1-.96v-.07c-.02-.3.07-.54.28-.75.2-.2.45-.28.73-.27.3-.02.54.07.74.27.2.2.3.46.3.75 0 .28-.1.53-.3.73-.2.2-.45.3-.73.3zM997.57 464.97v-9.4l-2.54 1.2v-1.3l2.67-1.5h1.47v11zM1006.65 455c-.74-.03-1.4.3-1.78.95-.5.98-.7 1.9-.68 3.02.7-.45 1.4-.65 2.22-.66.8-.04 1.53.27 2.06.9.58.68.83 1.46.78 2.36.05 1-.24 1.86-.88 2.6-.63.7-1.45 1.04-2.4 1-1.06.07-2-.4-2.58-1.3-.68-1.3-.95-2.56-.85-4.04-.1-1.64.23-3.06 1.03-4.5.6-1.04 1.65-1.6 2.85-1.56.42 0 .78.03 1.18.13.38.1.7.2 1.03.37v1.16c-.33-.14-.62-.24-.97-.3-.35-.08-.65-.12-1-.12zm-.68 4.56c-.66 0-1.2.15-1.8.44v.13c-.05 1.04.08 1.92.44 2.9.26.57.8.92 1.44.9 1.07 0 1.6-.74 1.6-2.25.04-.6-.1-1.1-.42-1.58-.32-.38-.75-.57-1.25-.54zM1011.9 465.1c-.53 0-1-.42-1-.96v-.07c-.02-.3.08-.54.28-.75.43-.36 1.04-.36 1.47 0 .2.2.3.46.3.75 0 .54-.42 1-.97 1.02h-.07zM1017.87 464.97v-9.4l-2.55 1.2v-1.3l2.67-1.5h1.46v11zM1023.98 465.1c-.54 0-1-.42-1.02-.96v-.07c0-.3.1-.54.3-.75.42-.36 1.03-.36 1.45 0 .22.2.32.46.3.75.02.54-.4 1-.95 1.02h-.07zM1030.02 465.2c-1.1.03-2.06-.52-2.6-1.48-.7-1.4-1-2.7-.9-4.26-.1-1.55.2-2.88.9-4.26.54-.95 1.5-1.5 2.6-1.44 1.1-.05 2.06.5 2.6 1.44.7 1.38.98 2.7.9 4.26.1 1.55-.2 2.88-.9 4.27-.54.96-1.5 1.5-2.6 1.46zm0-1.3c.66 0 1.2-.42 1.4-1.05.38-1.15.52-2.2.45-3.4.07-1.2-.07-2.24-.45-3.38-.14-.5-.5-.85-1-1-.77-.2-1.58.22-1.8 1-.37 1.15-.5 2.18-.45 3.4-.06 1.2.08 2.22.44 3.38.2.64.76 1.05 1.42 1.05zM969.02 492.6v-9.4l-2.53 1.18v-1.3l2.66-1.5h1.46v11zM975.27 492.6l3.6-9.7h-4.88v-1.33h6.48v1.2l-3.54 9.82zM982.72 482.4c.48-.34.93-.58 1.5-.78.48-.18.92-.26 1.45-.25.78-.06 1.47.2 2.03.75.53.63.78 1.34.73 2.16 0 .55-.1 1.02-.3 1.53-.33.73-.66 1.3-1.14 1.93-.55.77-1.47 1.94-2.78 3.53h4.6v1.33h-6.35v-1.2c1.14-1.43 2-2.54 2.62-3.4.5-.67.9-1.28 1.28-2.04.26-.5.38-1 .4-1.58 0-1.1-.47-1.7-1.36-1.7-1.02.1-1.86.42-2.68 1.03zM991.6 492.74c-.27.02-.52-.07-.72-.27-.2-.2-.3-.46-.3-.74 0-.55.4-1 .96-1.02h.07c.3 0 .54.1.74.3.2.2.3.44.3.73 0 .28-.1.53-.3.74-.2.2-.45.3-.73.27zM997.57 492.6v-9.4l-2.54 1.18v-1.3l2.67-1.5h1.47v11zM1006.65 482.62c-.74-.03-1.4.3-1.78.95-.5.98-.7 1.92-.68 3.02.7-.44 1.4-.65 2.22-.66.8-.02 1.52.27 2.06.9.57.68.82 1.47.78 2.36.04 1-.24 1.86-.88 2.63-.64.67-1.46 1-2.4.96-1.06.07-2-.4-2.58-1.3-.68-1.32-.95-2.6-.85-4.06-.1-1.65.23-3.07 1.03-4.5.6-1.05 1.65-1.6 2.85-1.58.42 0 .78.05 1.18.14.38.1.7.22 1.03.4v1.15c-.34-.14-.62-.23-.97-.3-.35-.1-.65-.13-1-.13zm-.68 4.5c-.66.02-1.2.16-1.8.45v.14c-.05 1.04.08 1.92.44 2.9.26.56.8.92 1.44.9 1.08 0 1.6-.75 1.6-2.23.05-.6-.1-1.1-.42-1.58-.3-.4-.75-.6-1.25-.57zM1011.9 492.74c-.27.02-.5-.07-.72-.27-.2-.2-.3-.46-.3-.74 0-.57.47-1.02 1.03-1.02.58 0 1.04.46 1.04 1.03 0 .28-.1.53-.3.74-.2.2-.44.3-.73.27zM1015.1 482.4c.48-.34.92-.58 1.48-.78.5-.18.94-.26 1.46-.25.8-.06 1.48.2 2.03.75.53.63.78 1.34.73 2.16 0 .55-.1 1.02-.3 1.53-.32.73-.66 1.3-1.13 1.93-.54.77-1.47 1.94-2.78 3.53h4.6v1.33h-6.36v-1.2c1.14-1.43 2-2.54 2.63-3.4.5-.67.87-1.28 1.26-2.04.26-.5.38-1 .38-1.58 0-1.1-.44-1.7-1.35-1.7-1 .1-1.85.42-2.67 1.03zM1023.98 492.74c-.28.02-.53-.07-.73-.27-.2-.2-.3-.46-.3-.74 0-.57.47-1.02 1.03-1.02.57 0 1.03.46 1.03 1.03.02.28-.08.53-.3.74-.2.2-.43.3-.72.27zM1030.02 492.8c-1.1.03-2.06-.5-2.6-1.46-.7-1.37-.98-2.7-.9-4.2-.1-1.56.2-2.9.9-4.27.54-.95 1.5-1.5 2.6-1.46 1.1-.02 2.06.52 2.6 1.47.7 1.38 1 2.7.9 4.26.1 1.55-.2 2.88-.9 4.26-.56.93-1.5 1.44-2.6 1.4zm0-1.3c.66 0 1.22-.4 1.4-1.05.38-1.15.52-2.18.45-3.4.07-1.2-.07-2.23-.45-3.38-.14-.5-.5-.84-1-.98-.77-.24-1.58.2-1.8.97-.38 1.15-.5 2.18-.45 3.4-.07 1.2.08 2.23.44 3.38.2.64.76 1.06 1.42 1.06z" stroke="#fff" stroke-opacity="0" fill="#693cc5"/><path d="M1038.32 445h-76.64c-.88 0-1.68-.76-1.68-1.7v-20.6c0-.93.8-1.7 1.68-1.7h76.64c.88 0 1.68.77 1.68 1.7v20.6c0 .94-.8 1.7-1.68 1.7zm-74.88-3.38h73.12V424.4h-73.12zM1038.32 472.02h-76.64c-.88 0-1.68-.77-1.68-1.7V449.7c0-.95.8-1.72 1.68-1.72h76.64c.88 0 1.68.77 1.68 1.7v20.63c0 .95-.8 1.72-1.68 1.72zm-74.88-3.4h73.12v-17.25h-73.12zM1038.32 499h-76.64c-.88 0-1.68-.77-1.68-1.7v-20.6c0-.94.8-1.7 1.68-1.7h76.64c.88 0 1.68.76 1.68 1.7v20.6c0 .93-.8 1.7-1.68 1.7zm-74.88-3.38h73.12v-17.25h-73.12z" stroke="#fff" stroke-opacity="0" fill="#693cc5"/><path d="M961.82 423.2h76.4V497h-76.4v-73.8z" stroke="#fff" stroke-opacity="0" stroke-width=".4" fill="#fff" fill-opacity="0"/><g><use xlink:href="#r" transform="matrix(1,0,0,1,930,508) translate(4.299999999999983 14.4)"/><use xlink:href="#m" transform="matrix(1,0,0,1,930,508) translate(59.649999999999984 14.4)"/><use xlink:href="#z" transform="matrix(1,0,0,1,930,508) translate(107.1 14.4)"/></g><defs><path fill="#6db1ff" d="M85 4C-2 5 27-109 22-190h50c7 57-23 150 33 157 60-5 35-97 40-157h50l1 190h-47c-2-12 1-28-3-38-12 25-28 42-61 42" id="A"/><path fill="#6db1ff" d="M137-138c1-29-70-34-71-4 15 46 118 7 119 86 1 83-164 76-172 9l43-7c4 19 20 25 44 25 33 8 57-30 24-41C81-84 22-81 20-136c-2-80 154-74 161-7" id="B"/><path fill="#6db1ff" d="M14-72v-43h91v43H14" id="C"/><path fill="#6db1ff" d="M185-48c-13 30-37 53-82 52C43 2 14-33 14-96s30-98 90-98c62 0 83 45 84 108H66c0 31 8 55 39 56 18 0 30-7 34-22zm-45-69c5-46-57-63-70-21-2 6-4 13-4 21h74" id="D"/><path fill="#6db1ff" d="M133-34C117-15 103 5 69 4 32 3 11-16 11-54c-1-60 55-63 116-61 1-26-3-47-28-47-18 1-26 9-28 27l-52-2c7-38 36-58 82-57s74 22 75 68l1 82c-1 14 12 18 25 15v27c-30 8-71 5-69-32zm-48 3c29 0 43-24 42-57-32 0-66-3-65 30 0 17 8 27 23 27" id="E"/><path fill="#6db1ff" d="M115-3C79 11 28 4 28-45v-112H4v-33h27l15-45h31v45h36v33H77v99c-1 23 16 31 38 25v30" id="F"/><path fill="#6db1ff" d="M23 0v-37h61v-169l-59 37v-38l62-41h46v211h57V0H23" id="G"/><g id="a"><use transform="matrix(0.06296296296296294,0,0,0.06296296296296294,0,0)" xlink:href="#A"/><use transform="matrix(0.06296296296296294,0,0,0.06296296296296294,13.788888888888884,0)" xlink:href="#B"/><use transform="matrix(0.06296296296296294,0,0,0.06296296296296294,26.381481481481472,0)" xlink:href="#C"/><use transform="matrix(0.06296296296296294,0,0,0.06296296296296294,33.87407407407406,0)" xlink:href="#D"/><use transform="matrix(0.06296296296296294,0,0,0.06296296296296294,46.46666666666665,0)" xlink:href="#E"/><use transform="matrix(0.06296296296296294,0,0,0.06296296296296294,59.059259259259235,0)" xlink:href="#B"/><use transform="matrix(0.06296296296296294,0,0,0.06296296296296294,71.65185185185183,0)" xlink:href="#F"/><use transform="matrix(0.06296296296296294,0,0,0.06296296296296294,79.14444444444442,0)" xlink:href="#C"/><use transform="matrix(0.06296296296296294,0,0,0.06296296296296294,86.637037037037,0)" xlink:href="#G"/></g><path fill="#d86613" d="M205 0l-28-72H64L36 0H1l101-248h38L239 0h-34zm-38-99l-47-123c-12 45-31 82-46 123h93" id="H"/><path fill="#d86613" d="M84 4C-5 8 30-112 23-190h32v120c0 31 7 50 39 49 72-2 45-101 50-169h31l1 190h-30c-1-10 1-25-2-33-11 22-28 36-60 37" id="I"/><path fill="#d86613" d="M59-47c-2 24 18 29 38 22v24C64 9 27 4 27-40v-127H5v-23h24l9-43h21v43h35v23H59v120" id="J"/><path fill="#d86613" d="M100-194c62-1 85 37 85 99 1 63-27 99-86 99S16-35 15-95c0-66 28-99 85-99zM99-20c44 1 53-31 53-75 0-43-8-75-51-75s-53 32-53 75 10 74 51 75" id="K"/><g id="b"><use transform="matrix(0.05,0,0,0.05,0,0)" xlink:href="#H"/><use transform="matrix(0.05,0,0,0.05,12,0)" xlink:href="#I"/><use transform="matrix(0.05,0,0,0.05,22,0)" xlink:href="#J"/><use transform="matrix(0.05,0,0,0.05,27,0)" xlink:href="#K"/></g><path fill="#d86613" d="M185-189c-5-48-123-54-124 2 14 75 158 14 163 119 3 78-121 87-175 55-17-10-28-26-33-46l33-7c5 56 141 63 141-1 0-78-155-14-162-118-5-82 145-84 179-34 5 7 8 16 11 25" id="L"/><path fill="#d86613" d="M96-169c-40 0-48 33-48 73s9 75 48 75c24 0 41-14 43-38l32 2c-6 37-31 61-74 61-59 0-76-41-82-99-10-93 101-131 147-64 4 7 5 14 7 22l-32 3c-4-21-16-35-41-35" id="M"/><path fill="#d86613" d="M141-36C126-15 110 5 73 4 37 3 15-17 15-53c-1-64 63-63 125-63 3-35-9-54-41-54-24 1-41 7-42 31l-33-3c5-37 33-52 76-52 45 0 72 20 72 64v82c-1 20 7 32 28 27v20c-31 9-61-2-59-35zM48-53c0 20 12 33 32 33 41-3 63-29 60-74-43 2-92-5-92 41" id="N"/><path fill="#d86613" d="M24 0v-261h32V0H24" id="O"/><path fill="#d86613" d="M24-231v-30h32v30H24zM24 0v-190h32V0H24" id="P"/><path fill="#d86613" d="M117-194c89-4 53 116 60 194h-32v-121c0-31-8-49-39-48C34-167 62-67 57 0H25l-1-190h30c1 10-1 24 2 32 11-22 29-35 61-36" id="Q"/><path fill="#d86613" d="M177-190C167-65 218 103 67 71c-23-6-38-20-44-43l32-5c15 47 100 32 89-28v-30C133-14 115 1 83 1 29 1 15-40 15-95c0-56 16-97 71-98 29-1 48 16 59 35 1-10 0-23 2-32h30zM94-22c36 0 50-32 50-73 0-42-14-75-50-75-39 0-46 34-46 75s6 73 46 73" id="R"/><g id="c"><use transform="matrix(0.05,0,0,0.05,0,0)" xlink:href="#L"/><use transform="matrix(0.05,0,0,0.05,12,0)" xlink:href="#M"/><use transform="matrix(0.05,0,0,0.05,21,0)" xlink:href="#N"/><use transform="matrix(0.05,0,0,0.05,31,0)" xlink:href="#O"/><use transform="matrix(0.05,0,0,0.05,34.95,0)" xlink:href="#P"/><use transform="matrix(0.05,0,0,0.05,38.900000000000006,0)" xlink:href="#Q"/><use transform="matrix(0.05,0,0,0.05,48.900000000000006,0)" xlink:href="#R"/></g><path d="M185-189c-5-48-123-54-124 2 14 75 158 14 163 119 3 78-121 87-175 55-17-10-28-26-33-46l33-7c5 56 141 63 141-1 0-78-155-14-162-118-5-82 145-84 179-34 5 7 8 16 11 25" id="S"/><path d="M100-194c63 0 86 42 84 106H49c0 40 14 67 53 68 26 1 43-12 49-29l28 8c-11 28-37 45-77 45C44 4 14-33 15-96c1-61 26-98 85-98zm52 81c6-60-76-77-97-28-3 7-6 17-6 28h103" id="T"/><path d="M96-169c-40 0-48 33-48 73s9 75 48 75c24 0 41-14 43-38l32 2c-6 37-31 61-74 61-59 0-76-41-82-99-10-93 101-131 147-64 4 7 5 14 7 22l-32 3c-4-21-16-35-41-35" id="U"/><path d="M84 4C-5 8 30-112 23-190h32v120c0 31 7 50 39 49 72-2 45-101 50-169h31l1 190h-30c-1-10 1-25-2-33-11 22-28 36-60 37" id="V"/><path d="M114-163C36-179 61-72 57 0H25l-1-190h30c1 12-1 29 2 39 6-27 23-49 58-41v29" id="W"/><path d="M24-231v-30h32v30H24zM24 0v-190h32V0H24" id="X"/><path d="M59-47c-2 24 18 29 38 22v24C64 9 27 4 27-40v-127H5v-23h24l9-43h21v43h35v23H59v120" id="Y"/><path d="M179-190L93 31C79 59 56 82 12 73V49c39 6 53-20 64-50L1-190h34L92-34l54-156h33" id="Z"/><g id="d"><use transform="matrix(0.05,0,0,0.05,0,0)" xlink:href="#S"/><use transform="matrix(0.05,0,0,0.05,12,0)" xlink:href="#T"/><use transform="matrix(0.05,0,0,0.05,22,0)" xlink:href="#U"/><use transform="matrix(0.05,0,0,0.05,31,0)" xlink:href="#V"/><use transform="matrix(0.05,0,0,0.05,41,0)" xlink:href="#W"/><use transform="matrix(0.05,0,0,0.05,46.95,0)" xlink:href="#X"/><use transform="matrix(0.05,0,0,0.05,50.900000000000006,0)" xlink:href="#Y"/><use transform="matrix(0.05,0,0,0.05,55.900000000000006,0)" xlink:href="#Z"/></g><path d="M143 4C61 4 22-44 18-125c-5-107 100-154 193-111 17 8 29 25 37 43l-32 9c-13-25-37-40-76-40-61 0-88 39-88 99 0 61 29 100 91 101 35 0 62-11 79-27v-45h-74v-28h105v86C228-13 192 4 143 4" id="aa"/><path d="M100-194c62-1 85 37 85 99 1 63-27 99-86 99S16-35 15-95c0-66 28-99 85-99zM99-20c44 1 53-31 53-75 0-43-8-75-51-75s-53 32-53 75 10 74 51 75" id="ab"/><path d="M115-194c55 1 70 41 70 98S169 2 115 4C84 4 66-9 55-30l1 105H24l-1-265h31l2 30c10-21 28-34 59-34zm-8 174c40 0 45-34 45-75s-6-73-45-74c-42 0-51 32-51 76 0 43 10 73 51 73" id="ac"/><g id="e"><use transform="matrix(0.05,0,0,0.05,0,0)" xlink:href="#aa"/><use transform="matrix(0.05,0,0,0.05,14,0)" xlink:href="#W"/><use transform="matrix(0.05,0,0,0.05,19.95,0)" xlink:href="#ab"/><use transform="matrix(0.05,0,0,0.05,29.950000000000003,0)" xlink:href="#V"/><use transform="matrix(0.05,0,0,0.05,39.95,0)" xlink:href="#ac"/></g><path fill="#16191f" d="M729 0H543v-1233l-373 137v-168l530-199h29V0" id="ad"/><path fill="#16191f" d="M574-1476c351 0 454 237 460 615v240c0 217-37 378-111 483S733 20 576 20c-346 0-454-246-461-616v-247c0-214 37-373 111-477s190-156 348-156zm275 905c0-337 59-752-275-753-95 0-160 38-207 107-80 118-66 409-67 625 0 157 22 273 68 348s115 113 208 113c91 0 160-35 204-106s69-182 69-334" id="ae"/><path fill="#16191f" d="M258 11c-71 0-114-43-114-108 0-67 42-112 114-112s116 45 116 112c-1 65-45 108-116 108" id="af"/><path fill="#16191f" d="M177 125H18l608-1581h158" id="ag"/><path fill="#16191f" d="M132-554c0-555 187-908 715-903v157c-320-8-501 179-526 477 77-88 181-132 314-132 259 0 417 214 417 480 0 286-172 495-451 495-293 0-469-266-469-574zm737 88c0-181-95-335-265-335-133 0-252 96-286 200v68c-6 207 101 397 283 400 175 3 268-150 268-333" id="ah"/><g id="f"><use transform="matrix(0.009114583333333334,0,0,0.009114583333333334,0,0)" xlink:href="#ad"/><use transform="matrix(0.009114583333333334,0,0,0.009114583333333334,10.481770833333334,0)" xlink:href="#ae"/><use transform="matrix(0.009114583333333334,0,0,0.009114583333333334,20.963541666666668,0)" xlink:href="#af"/><use transform="matrix(0.009114583333333334,0,0,0.009114583333333334,25.876302083333336,0)" xlink:href="#ae"/><use transform="matrix(0.009114583333333334,0,0,0.009114583333333334,36.35807291666667,0)" xlink:href="#af"/><use transform="matrix(0.009114583333333334,0,0,0.009114583333333334,41.270833333333336,0)" xlink:href="#ae"/><use transform="matrix(0.009114583333333334,0,0,0.009114583333333334,51.75260416666667,0)" xlink:href="#af"/><use transform="matrix(0.009114583333333334,0,0,0.009114583333333334,56.665364583333336,0)" xlink:href="#ae"/><use transform="matrix(0.009114583333333334,0,0,0.009114583333333334,67.14713541666667,0)" xlink:href="#ag"/><use transform="matrix(0.009114583333333334,0,0,0.009114583333333334,74.83984375,0)" xlink:href="#ad"/><use transform="matrix(0.009114583333333334,0,0,0.009114583333333334,85.32161458333333,0)" xlink:href="#ah"/></g><path fill="#16191f" d="M569-1476c255 0 440 146 439 390 0 143-91 314-274 512L344-151h731V0H121v-133l504-560c75-85 125-155 155-207 105-184 6-424-211-424-183 0-293 113-291 297H93c-3-270 199-449 476-449" id="ai"/><path fill="#16191f" d="M902-489h202v151H902V0H716v-338H53v-109l652-1009h197v967zm-639 0h453v-714l-22 40" id="aj"/><g id="g"><use transform="matrix(0.009114583333333334,0,0,0.009114583333333334,0,0)" xlink:href="#ad"/><use transform="matrix(0.009114583333333334,0,0,0.009114583333333334,10.481770833333334,0)" xlink:href="#ae"/><use transform="matrix(0.009114583333333334,0,0,0.009114583333333334,20.963541666666668,0)" xlink:href="#af"/><use transform="matrix(0.009114583333333334,0,0,0.009114583333333334,25.876302083333336,0)" xlink:href="#ae"/><use transform="matrix(0.009114583333333334,0,0,0.009114583333333334,36.35807291666667,0)" xlink:href="#af"/><use transform="matrix(0.009114583333333334,0,0,0.009114583333333334,41.270833333333336,0)" xlink:href="#ai"/><use transform="matrix(0.009114583333333334,0,0,0.009114583333333334,51.75260416666667,0)" xlink:href="#af"/><use transform="matrix(0.009114583333333334,0,0,0.009114583333333334,56.665364583333336,0)" xlink:href="#ae"/><use transform="matrix(0.009114583333333334,0,0,0.009114583333333334,67.14713541666667,0)" xlink:href="#ag"/><use transform="matrix(0.009114583333333334,0,0,0.009114583333333334,74.83984375,0)" xlink:href="#ai"/><use transform="matrix(0.009114583333333334,0,0,0.009114583333333334,85.32161458333333,0)" xlink:href="#aj"/></g><g id="h"><use transform="matrix(0.009114583333333334,0,0,0.009114583333333334,0,0)" xlink:href="#ad"/><use transform="matrix(0.009114583333333334,0,0,0.009114583333333334,10.481770833333334,0)" xlink:href="#ae"/><use transform="matrix(0.009114583333333334,0,0,0.009114583333333334,20.963541666666668,0)" xlink:href="#af"/><use transform="matrix(0.009114583333333334,0,0,0.009114583333333334,25.876302083333336,0)" xlink:href="#ae"/><use transform="matrix(0.009114583333333334,0,0,0.009114583333333334,36.35807291666667,0)" xlink:href="#af"/><use transform="matrix(0.009114583333333334,0,0,0.009114583333333334,41.270833333333336,0)" xlink:href="#ad"/><use transform="matrix(0.009114583333333334,0,0,0.009114583333333334,51.75260416666667,0)" xlink:href="#af"/><use transform="matrix(0.009114583333333334,0,0,0.009114583333333334,56.665364583333336,0)" xlink:href="#ae"/><use transform="matrix(0.009114583333333334,0,0,0.009114583333333334,67.14713541666667,0)" xlink:href="#ag"/><use transform="matrix(0.009114583333333334,0,0,0.009114583333333334,74.83984375,0)" xlink:href="#ai"/><use transform="matrix(0.009114583333333334,0,0,0.009114583333333334,85.32161458333333,0)" xlink:href="#aj"/></g><path d="M232-93c-1 65-40 97-104 97C67 4 28-28 28-90v-158h33c8 89-33 224 67 224 102 0 64-133 71-224h33v155" id="ak"/><path d="M135-143c-3-34-86-38-87 0 15 53 115 12 119 90S17 21 10-45l28-5c4 36 97 45 98 0-10-56-113-15-118-90-4-57 82-63 122-42 12 7 21 19 24 35" id="al"/><g id="i"><use transform="matrix(0.05,0,0,0.05,0,0)" xlink:href="#ak"/><use transform="matrix(0.05,0,0,0.05,12.950000000000001,0)" xlink:href="#al"/><use transform="matrix(0.05,0,0,0.05,21.950000000000003,0)" xlink:href="#T"/><use transform="matrix(0.05,0,0,0.05,31.950000000000003,0)" xlink:href="#W"/><use transform="matrix(0.05,0,0,0.05,37.900000000000006,0)" xlink:href="#al"/></g><g id="j"><use transform="matrix(0.009114583333333334,0,0,0.009114583333333334,0,0)" xlink:href="#ad"/><use transform="matrix(0.009114583333333334,0,0,0.009114583333333334,10.481770833333334,0)" xlink:href="#ae"/><use transform="matrix(0.009114583333333334,0,0,0.009114583333333334,20.963541666666668,0)" xlink:href="#af"/><use transform="matrix(0.009114583333333334,0,0,0.009114583333333334,25.876302083333336,0)" xlink:href="#ae"/><use transform="matrix(0.009114583333333334,0,0,0.009114583333333334,36.35807291666667,0)" xlink:href="#af"/><use transform="matrix(0.009114583333333334,0,0,0.009114583333333334,41.270833333333336,0)" xlink:href="#ae"/><use transform="matrix(0.009114583333333334,0,0,0.009114583333333334,51.75260416666667,0)" xlink:href="#af"/><use transform="matrix(0.009114583333333334,0,0,0.009114583333333334,56.665364583333336,0)" xlink:href="#ae"/><use transform="matrix(0.009114583333333334,0,0,0.009114583333333334,67.14713541666667,0)" xlink:href="#ag"/><use transform="matrix(0.009114583333333334,0,0,0.009114583333333334,74.83984375,0)" xlink:href="#ai"/><use transform="matrix(0.009114583333333334,0,0,0.009114583333333334,85.32161458333333,0)" xlink:href="#aj"/></g><path fill="#16191f" d="M832-402c-1-179-119-264-303-265H390v-151h139c164 0 281-91 281-250 0-171-85-256-255-256-154 0-265 99-263 250H107c-4-235 205-402 448-402 266 0 444 150 440 412-2 148-109 272-229 317 147 45 249 158 251 341 3 262-197 426-461 426C299 20 91-135 94-384h186c-2 156 116 253 276 253 176 0 277-96 276-271" id="am"/><g id="k"><use transform="matrix(0.009114583333333334,0,0,0.009114583333333334,0,0)" xlink:href="#ad"/><use transform="matrix(0.009114583333333334,0,0,0.009114583333333334,10.481770833333334,0)" xlink:href="#ae"/><use transform="matrix(0.009114583333333334,0,0,0.009114583333333334,20.963541666666668,0)" xlink:href="#af"/><use transform="matrix(0.009114583333333334,0,0,0.009114583333333334,25.876302083333336,0)" xlink:href="#ae"/><use transform="matrix(0.009114583333333334,0,0,0.009114583333333334,36.35807291666667,0)" xlink:href="#af"/><use transform="matrix(0.009114583333333334,0,0,0.009114583333333334,41.270833333333336,0)" xlink:href="#am"/><use transform="matrix(0.009114583333333334,0,0,0.009114583333333334,51.75260416666667,0)" xlink:href="#af"/><use transform="matrix(0.009114583333333334,0,0,0.009114583333333334,56.665364583333336,0)" xlink:href="#ae"/><use transform="matrix(0.009114583333333334,0,0,0.009114583333333334,67.14713541666667,0)" xlink:href="#ag"/><use transform="matrix(0.009114583333333334,0,0,0.009114583333333334,74.83984375,0)" xlink:href="#ai"/><use transform="matrix(0.009114583333333334,0,0,0.009114583333333334,85.32161458333333,0)" xlink:href="#aj"/></g><path fill="#3a414a" d="M75-108c48 3 76-12 76-58s-28-57-76-54v112zm111-58c-1 60-46 78-111 74v78l37 5v9H13v-9l28-5v-208l-31-4v-10c81 1 178-14 176 70" id="an"/><path fill="#3a414a" d="M124-13C89 8 26 15 26-45v-108c-8-3-24 2-21-12h50v118c-3 37 42 32 69 25v-131l-25-4v-8h54v153c8 3 24-2 21 12h-48" id="ao"/><path fill="#3a414a" d="M53-14c58 12 82-15 82-73 0-52-35-77-82-58v131zM89 4C64 4 42-2 24-9v-229l-24-4v-8h53l-1 94c48-33 114-4 114 69 0 57-23 91-77 91" id="ap"/><path fill="#3a414a" d="M65-12l28 4v8H7v-8l28-4v-226l-28-4v-8h58v238" id="aq"/><path fill="#3a414a" d="M47-200c-23 0-25-39 0-38 13 0 18 7 20 19-1 11-8 19-20 19zM65-12l28 4v8H8v-8l28-4v-141l-24-4v-8h53v153" id="ar"/><path fill="#3a414a" d="M45-84c0 64 52 80 104 63 1 25-30 25-55 25-56 0-80-32-80-88 0-76 62-98 131-80v46h-10c-5-15-4-31-23-35-47-10-67 21-67 69" id="as"/><g id="l"><use transform="matrix(0.05,0,0,0.05,0,0)" xlink:href="#an"/><use transform="matrix(0.05,0,0,0.05,10,0)" xlink:href="#ao"/><use transform="matrix(0.05,0,0,0.05,19,0)" xlink:href="#ap"/><use transform="matrix(0.05,0,0,0.05,28,0)" xlink:href="#aq"/><use transform="matrix(0.05,0,0,0.05,33,0)" xlink:href="#ar"/><use transform="matrix(0.05,0,0,0.05,38,0)" xlink:href="#as"/></g><path fill="#3a414a" d="M199-173c-1 36-21 56-49 65l64 94 26 5v9h-57l-66-103H75v89l35 5v9H13v-9l28-5v-208l-31-4v-10c80 4 190-20 189 63zM75-119c50 2 89-1 89-51 0-49-39-52-89-50v101" id="at"/><path fill="#3a414a" d="M90-170c52 0 76 32 76 87 0 54-24 87-77 87-51 0-75-34-75-87 0-54 24-87 76-87zM89-10c39 0 46-35 46-73 0-39-7-73-46-73-39 1-44 34-44 73s6 72 44 73" id="au"/><path fill="#3a414a" d="M54-38c-1 25 24 26 44 20v12C71 10 25 9 25-35v-115H4c-2-14 14-10 21-15l18-38h11v38h38v15H54v112" id="av"/><path fill="#3a414a" d="M84-170c49 0 66 33 63 87H46c-8 60 38 80 95 63v10C128-2 108 4 88 4 34 4 14-29 14-84c-1-54 22-86 70-86zm33 73c12-57-57-82-69-24-1 7-2 15-2 24h71" id="aw"/><g id="m"><use transform="matrix(0.05,0,0,0.05,0,0)" xlink:href="#at"/><use transform="matrix(0.05,0,0,0.05,12,0)" xlink:href="#au"/><use transform="matrix(0.05,0,0,0.05,21,0)" xlink:href="#ao"/><use transform="matrix(0.05,0,0,0.05,30,0)" xlink:href="#av"/><use transform="matrix(0.05,0,0,0.05,35,0)" xlink:href="#aw"/></g><path fill="#3a414a" d="M32-163c41-10 102-14 102 39v112c8 3 24-2 21 12h-45l-4-17C83 13 3 13 13-46c-2-50 45-50 92-51 4-36-5-70-42-56-6 2-12 4-16 6-4 7 0 23-15 20v-36zM42-47c0 41 41 33 63 22v-59c-34 1-63-1-63 37" id="ax"/><g id="n"><use transform="matrix(0.05,0,0,0.05,0,0)" xlink:href="#av"/><use transform="matrix(0.05,0,0,0.05,5,0)" xlink:href="#ax"/><use transform="matrix(0.05,0,0,0.05,12.949999999999998,0)" xlink:href="#ap"/><use transform="matrix(0.05,0,0,0.05,21.95,0)" xlink:href="#aq"/><use transform="matrix(0.05,0,0,0.05,26.950000000000003,0)" xlink:href="#aw"/></g><path d="M137 0h-34L2-248h35l83 218 83-218h36" id="ay"/><path d="M30-248c87 1 191-15 191 75 0 78-77 80-158 76V0H30v-248zm33 125c57 0 124 11 124-50 0-59-68-47-124-48v98" id="az"/><path d="M212-179c-10-28-35-45-73-45-59 0-87 40-87 99 0 60 29 101 89 101 43 0 62-24 78-52l27 14C228-24 195 4 139 4 59 4 22-46 18-125c-6-104 99-153 187-111 19 9 31 26 39 46" id="aA"/><g id="o"><use transform="matrix(0.05,0,0,0.05,0,0)" xlink:href="#ay"/><use transform="matrix(0.05,0,0,0.05,12,0)" xlink:href="#az"/><use transform="matrix(0.05,0,0,0.05,24,0)" xlink:href="#aA"/></g><path d="M190 0L58-211 59 0H30v-248h39L202-35l-2-213h31V0h-41" id="aB"/><path d="M205 0l-28-72H64L36 0H1l101-248h38L239 0h-34zm-38-99l-47-123c-12 45-31 82-46 123h93" id="aC"/><path d="M127-220V0H93v-220H8v-28h204v28h-85" id="aD"/><g id="p"><use transform="matrix(0.05,0,0,0.05,0,0)" xlink:href="#aB"/><use transform="matrix(0.05,0,0,0.05,12.950000000000001,0)" xlink:href="#aC"/><use transform="matrix(0.05,0,0,0.05,23.6,0)" xlink:href="#aD"/></g><path d="M141-36C126-15 110 5 73 4 37 3 15-17 15-53c-1-64 63-63 125-63 3-35-9-54-41-54-24 1-41 7-42 31l-33-3c5-37 33-52 76-52 45 0 72 20 72 64v82c-1 20 7 32 28 27v20c-31 9-61-2-59-35zM48-53c0 20 12 33 32 33 41-3 63-29 60-74-43 2-92-5-92 41" id="aE"/><path d="M206 0h-36l-40-164L89 0H53L-1-190h32L70-26l43-164h34l41 164 42-164h31" id="aF"/><g id="q"><use transform="matrix(0.05,0,0,0.05,0,0)" xlink:href="#aa"/><use transform="matrix(0.05,0,0,0.05,14,0)" xlink:href="#aE"/><use transform="matrix(0.05,0,0,0.05,24,0)" xlink:href="#Y"/><use transform="matrix(0.05,0,0,0.05,29,0)" xlink:href="#T"/><use transform="matrix(0.05,0,0,0.05,39,0)" xlink:href="#aF"/><use transform="matrix(0.05,0,0,0.05,51.95,0)" xlink:href="#aE"/><use transform="matrix(0.05,0,0,0.05,61.95,0)" xlink:href="#Z"/></g><path fill="#3a414a" d="M57-145c16-10 35-24 60-25v45c-19 1-8-30-40-17l-20 6v124l29 4v8H7v-8l21-4v-141c-8-3-24 2-21-12h48" id="aG"/><path fill="#3a414a" d="M164-154L98 4H85L17-153c-7-3-20 0-17-12h77v8l-26 4L99-38l46-115-26-4v-8h61v8" id="aH"/><g id="r"><use transform="matrix(0.05,0,0,0.05,0,0)" xlink:href="#an"/><use transform="matrix(0.05,0,0,0.05,10,0)" xlink:href="#aG"/><use transform="matrix(0.05,0,0,0.05,15.949999999999998,0)" xlink:href="#ar"/><use transform="matrix(0.05,0,0,0.05,20.95,0)" xlink:href="#aH"/><use transform="matrix(0.05,0,0,0.05,29.950000000000003,0)" xlink:href="#ax"/><use transform="matrix(0.05,0,0,0.05,37.9,0)" xlink:href="#av"/><use transform="matrix(0.05,0,0,0.05,42.9,0)" xlink:href="#aw"/></g><path fill="#3a414a" d="M81-9v9H4v-9l26-5 81-224h33l83 224 30 5v9h-99v-9l31-5-23-68H73L49-14zm38-203L78-98h82" id="aI"/><path fill="#3a414a" d="M56-15s89 2 122-6l10-45h12l-5 66H17v-17l132-204c-33 1-75-1-103 4l-6 37H28v-56h161v15" id="aJ"/><path fill="#3a414a" d="M24-231c66-21 156 2 128 81C132-92 78-66 39-27h121V0H16v-26l59-54c26-25 47-47 47-97 0-48-47-57-81-37l-6 29H24v-46" id="aK"/><g id="s"><use transform="matrix(0.05,0,0,0.05,0,0)" xlink:href="#aI"/><use transform="matrix(0.05,0,0,0.05,12.950000000000001,0)" xlink:href="#aJ"/><use transform="matrix(0.05,0,0,0.05,23.900000000000002,0)" xlink:href="#aK"/></g><path fill="#3a414a" d="M75-13V0H4v-13l17-5 84-220h51l83 220 18 5V0H152v-13l28-5-23-61H67L45-18zm38-189L74-98h76" id="aL"/><path fill="#3a414a" d="M79-18c40 0 85 1 117-6l10-45h16l-5 69H17v-20l131-197-99 3-5 38H28v-60h182v19" id="aM"/><g id="t"><use transform="matrix(0.06234567901234567,0,0,0.06234567901234567,0,0)" xlink:href="#aL"/><use transform="matrix(0.06234567901234567,0,0,0.06234567901234567,16.147530864197527,0)" xlink:href="#aM"/></g><use transform="matrix(0.06234567901234567,0,0,0.06234567901234567,0,0)" xlink:href="#aL" id="u"/><path fill="#3a414a" d="M92-134c39 3 62-4 62-44 0-37-25-40-62-38v82zm0 115c49 5 80-2 80-50 0-44-34-49-80-46v96zm138-50C230 26 101-4 6 0v-13l30-5v-200l-30-5v-13c79 7 206-26 206 54 0 33-22 49-49 56 39 3 67 18 67 57" id="aN"/><use transform="matrix(0.06234567901234567,0,0,0.06234567901234567,0,0)" xlink:href="#aN" id="v"/><path fill="#3a414a" d="M166-85c3 67-44 102-111 85l1 64 29 4v9H6v-9l21-4v-217c-7-3-22 1-19-12h46l1 9c11-8 26-14 45-14 47 2 64 36 66 85zM56-13c53 14 83-14 78-72 7-53-33-79-78-60v132" id="aO"/><path fill="#3a414a" d="M125-118c4-37-41-34-68-26v132l23 4v8H8C5-13 21-9 28-12v-141c-7-3-23 1-20-12h47l2 13c31-23 98-29 98 31v109c7 3 23-1 20 12h-72v-8l22-4v-106" id="aP"/><g id="w"><use transform="matrix(0.05,0,0,0.05,0,0)" xlink:href="#aI"/><use transform="matrix(0.05,0,0,0.05,12.950000000000001,0)" xlink:href="#aO"/><use transform="matrix(0.05,0,0,0.05,21.950000000000003,0)" xlink:href="#aO"/><use transform="matrix(0.05,0,0,0.05,30.950000000000003,0)" xlink:href="#aq"/><use transform="matrix(0.05,0,0,0.05,35.95,0)" xlink:href="#ar"/><use transform="matrix(0.05,0,0,0.05,40.95,0)" xlink:href="#as"/><use transform="matrix(0.05,0,0,0.05,48.900000000000006,0)" xlink:href="#ax"/><use transform="matrix(0.05,0,0,0.05,56.85,0)" xlink:href="#av"/><use transform="matrix(0.05,0,0,0.05,61.85,0)" xlink:href="#ar"/><use transform="matrix(0.05,0,0,0.05,66.85000000000001,0)" xlink:href="#au"/><use transform="matrix(0.05,0,0,0.05,75.85000000000001,0)" xlink:href="#aP"/></g><path fill="#3a414a" d="M111-226l-36 4v207c33-1 73 2 101-4l11-49h11l-3 68H10v-9l31-5v-208l-31-4v-10h101v10" id="aQ"/><path fill="#3a414a" d="M13-81c0-71 46-101 114-85l-1-72-28-4v-8h57v238c8 3 24-2 21 12h-47l-2-12C80 23 13-1 13-81zm77-74c-37 1-44 33-45 74 0 38 9 66 45 66 14 0 27-3 36-7v-130c-10-1-24-3-36-3" id="aR"/><g id="x"><use transform="matrix(0.05,0,0,0.05,0,0)" xlink:href="#aQ"/><use transform="matrix(0.05,0,0,0.05,10.950000000000001,0)" xlink:href="#au"/><use transform="matrix(0.05,0,0,0.05,19.950000000000003,0)" xlink:href="#ax"/><use transform="matrix(0.05,0,0,0.05,27.900000000000002,0)" xlink:href="#aR"/></g><path fill="#3a414a" d="M75-131c50 2 93 3 93-48 0-46-48-41-93-41v89zm0 115c55 4 111 6 111-51 0-53-58-48-111-48v99zm148-52C223 24 102-3 10 0v-9l31-5v-208l-31-4v-10c77 6 193-24 194 56 0 33-20 48-48 54 36 5 67 20 67 58" id="aS"/><g id="y"><use transform="matrix(0.05,0,0,0.05,0,0)" xlink:href="#aS"/><use transform="matrix(0.05,0,0,0.05,12,0)" xlink:href="#ax"/><use transform="matrix(0.05,0,0,0.05,19.95,0)" xlink:href="#aq"/><use transform="matrix(0.05,0,0,0.05,24.95,0)" xlink:href="#ax"/><use transform="matrix(0.05,0,0,0.05,32.9,0)" xlink:href="#aP"/><use transform="matrix(0.05,0,0,0.05,41.9,0)" xlink:href="#as"/><use transform="matrix(0.05,0,0,0.05,49.85,0)" xlink:href="#aw"/><use transform="matrix(0.05,0,0,0.05,57.800000000000004,0)" xlink:href="#aG"/></g><path fill="#3a414a" d="M110-14l48 5v9H32v-9l48-5v-192l-48 17v-10l69-39h9v224" id="aT"/><g id="z"><use transform="matrix(0.05,0,0,0.05,0,0)" xlink:href="#aI"/><use transform="matrix(0.05,0,0,0.05,12.950000000000001,0)" xlink:href="#aJ"/><use transform="matrix(0.05,0,0,0.05,23.900000000000002,0)" xlink:href="#aT"/></g></defs></g></svg>